<?xml version="1.0" encoding="UTF-8" standalone="no"?>
<!DOCTYPE svg PUBLIC "-//W3C//DTD SVG 1.1//EN" "http://www.w3.org/Graphics/SVG/1.1/DTD/svg11.dtd">
<svg width="100%" height="100%" viewBox="0 0 357 414" version="1.1" xmlns="http://www.w3.org/2000/svg" xmlns:xlink="http://www.w3.org/1999/xlink" xml:space="preserve" xmlns:serif="http://www.serif.com/" style="fill-rule:evenodd;clip-rule:evenodd;stroke-linejoin:round;stroke-miterlimit:1.41421;">
    <g id="Artboard1" transform="matrix(1,0,0,1,-924,-2.84217e-14)">
        <rect x="924" y="0" width="356.141" height="413.981" style="fill:none;"/>
        <clipPath id="_clip1">
            <rect x="924" y="0" width="356.141" height="413.981"/>
        </clipPath>
        <g clip-path="url(#_clip1)">
            <g transform="matrix(0.889164,0,0,0.607512,4.34852,-76.7591)">
                <path d="M-4.891,467.542C-4.891,467.542 448.599,473.189 565.49,473.189C682.381,473.189 714.887,507.973 714.887,593.955C714.887,679.938 722.977,763.902 861.091,763.902C999.206,763.902 1434.66,763.901 1434.66,763.901L1434.66,807.786L951.063,807.786L-4.891,807.786L-4.891,467.542Z" style="fill:rgb(193,216,234);"/>
            </g>
            <g transform="matrix(0.202353,0,0,0.202353,934.661,111.321)">
                <rect x="1309.89" y="310.351" width="201.757" height="907.371" style="fill:rgb(250,207,134);"/>
            </g>
            <g transform="matrix(0.202353,0,0,0.202353,934.661,111.321)">
                <rect x="1247.29" y="310.351" width="62.597" height="907.371" style="fill:rgb(250,238,184);"/>
            </g>
            <g transform="matrix(0.202353,0,0,0.202353,934.661,-49.1028)">
                <rect x="1326.87" y="1122.6" width="171.296" height="75.659" style="fill:rgb(250,238,184);"/>
            </g>
            <g transform="matrix(0.202353,0,0,0.202353,934.661,-49.1028)">
                <rect x="1326.87" y="1122.6" width="136.229" height="75.659" style="fill:rgb(233,178,118);"/>
            </g>
            <g transform="matrix(0.202353,0,0,0.202353,934.661,-11.4413)">
                <rect x="1326.87" y="1022.86" width="171.296" height="89.027" style="fill:rgb(250,238,184);"/>
            </g>
            <g transform="matrix(0.202353,0,0,0.202353,934.661,-11.4413)">
                <rect x="1326.87" y="1022.86" width="136.229" height="89.027" style="fill:rgb(233,178,118);"/>
            </g>
            <g transform="matrix(0.202353,0,0,0.202353,934.661,21.3443)">
                <rect x="1326.87" y="959.24" width="171.296" height="54.245" style="fill:rgb(250,238,184);"/>
            </g>
            <g transform="matrix(0.202353,0,0,0.202353,934.661,21.3443)">
                <rect x="1326.87" y="959.24" width="136.229" height="54.245" style="fill:rgb(233,178,118);"/>
            </g>
            <g transform="matrix(0.202353,0,0,0.202353,934.661,-5.89215)">
                <rect x="1343.74" y="1022.86" width="28.998" height="61.604" style="fill:rgb(250,238,184);"/>
            </g>
            <g transform="matrix(0.202353,0,0,0.202353,934.661,-20.1876)">
                <rect x="1349.3" y="1084.46" width="17.871" height="9.042" style="fill:rgb(250,238,184);"/>
            </g>
            <g transform="matrix(0.202353,0,0,0.202353,934.661,0.341126)">
                <rect x="1378.81" y="1022.86" width="66.423" height="30.8" style="fill:rgb(250,238,184);"/>
            </g>
            <g transform="matrix(0.202353,0,0,0.202353,934.661,26.0873)">
                <rect x="1335.81" y="959.243" width="66.423" height="30.8" style="fill:rgb(250,238,184);"/>
            </g>
            <g transform="matrix(0.202353,0,0,0.202353,934.661,26.0873)">
                <rect x="1409.41" y="959.243" width="10.962" height="30.8" style="fill:rgb(250,238,184);"/>
            </g>
            <g transform="matrix(0.202353,0,0,0.202353,934.661,28.3261)">
                <rect x="1423.23" y="959.24" width="10.961" height="19.742" style="fill:rgb(250,238,184);"/>
            </g>
            <g transform="matrix(0.202353,0,0,0.202353,934.661,22.5694)">
                <rect x="1423.23" y="980.321" width="10.961" height="6.029" style="fill:rgb(250,238,184);"/>
            </g>
            <g transform="matrix(0.202353,0,0,0.202353,934.661,28.3261)">
                <rect x="1437.05" y="959.24" width="10.963" height="19.742" style="fill:rgb(250,238,184);"/>
            </g>
            <g transform="matrix(0.202353,0,0,0.202353,934.661,22.5694)">
                <rect x="1437.05" y="980.321" width="10.963" height="6.029" style="fill:rgb(250,238,184);"/>
            </g>
            <g transform="matrix(0.202353,0,0,0.202353,993.642,389.887)">
                <path d="M0,-96.432L1281.31,-96.432C1308.02,-96.432 1329.87,-74.737 1329.87,-48.216C1329.87,-21.695 1308.02,0 1281.31,0L0,0C-26.708,0 -48.555,-21.695 -48.555,-48.216C-48.555,-74.737 -26.708,-96.432 0,-96.432" style="fill:rgb(250,207,134);"/>
            </g>
            <g transform="matrix(0.202353,0,0,0.202353,1020.63,285.919)">
                <path d="M0,-252.967L0.003,-252.967C20.992,-258.553 42.76,-246.072 48.384,-225.231L105.188,-14.722L28.874,5.586L-27.931,-204.927C-33.555,-225.766 -20.985,-247.381 0,-252.967" style="fill:rgb(221,250,250);"/>
            </g>
            <g transform="matrix(0.202353,0,0,0.202353,1034.91,238.746)">
                <path d="M0,227.613L-41.688,238.705L-98.493,28.195C-102.451,13.532 -97.401,-1.515 -86.751,-11.092C-72.708,-8.084 -60.76,2.44 -56.804,17.103L0,227.613Z" style="fill:rgb(157,217,237);"/>
            </g>
            <g transform="matrix(0.202353,0,0,0.202353,1097.58,253.901)">
                <path d="M0,-83.545L261.91,-83.545L261.91,-39.031C261.91,-17.558 244.232,0 222.604,0L0,0L0,-83.545Z" style="fill:rgb(36,92,148);"/>
            </g>
            <g transform="matrix(0.202353,0,0,0.202353,1074.78,253.901)">
                <path d="M0,-83.545L225.32,-83.545L135.318,0L-90.002,0L0,-83.545Z" style="fill:rgb(53,114,176);"/>
            </g>
            <g transform="matrix(0.202353,0,0,0.202353,1039.48,200.437)">
                <path d="M0,-11.126L-0.006,-11.126L-0.006,111.614L57.914,111.614L57.914,38.961L87.311,38.961C112.131,38.961 132.433,18.806 132.433,-5.847L132.433,-77.933C132.433,-102.579 112.131,-122.74 87.311,-122.74L0,-122.74L0,-11.126Z" style="fill:rgb(250,170,110);"/>
            </g>
            <g transform="matrix(0.202353,0,0,0.202353,1056.66,183.271)">
                <path d="M0,-52.131L-75.878,-52.131L-75.878,0L48.078,0L48.078,-4.389C48.078,-30.652 26.447,-52.131 0,-52.131" style="fill:rgb(158,83,83);"/>
            </g>
            <g transform="matrix(0.202353,0,0,0.202353,1053.95,194.731)">
                <path d="M0,-108.763L-79.63,-108.763L-79.63,-1.434C-74.912,-0.495 -70.027,0 -65.033,0C-24.13,0 9.031,-32.93 9.031,-73.546C9.031,-86.306 5.753,-98.305 0,-108.763" style="fill:rgb(158,83,83);"/>
            </g>
            <g transform="matrix(0.202353,0,0,0.202353,1058.25,202.884)">
                <path d="M0,-13.409C1.349,-5.785 8.032,0 16.094,0C24.157,0 30.84,-5.785 32.185,-13.409L0,-13.409Z" style="fill:rgb(250,92,92);"/>
            </g>
            <g transform="matrix(0.202353,0,0,0.202353,1036.66,167.024)">
                <path d="M0,86.214C23.909,86.214 43.407,66.85 43.407,43.107C43.407,19.365 23.909,0 0,0C-23.909,0 -43.41,19.365 -43.41,43.107C-43.41,66.85 -23.909,86.214 0,86.214" style="fill:rgb(158,83,83);"/>
            </g>
            <g transform="matrix(0.202353,0,0,0.202353,934.661,12.9338)">
                <rect x="505.383" y="994.452" width="87.084" height="25.385" style="fill:rgb(150,213,218);"/>
            </g>
            <g transform="matrix(0.202353,0,0,0.202353,1038.06,286.244)">
                <path d="M0,-330.823L68.557,-330.823C96.6,-330.823 119.538,-308.04 119.538,-280.199L119.538,0L0,0L0,-330.823Z" style="fill:rgb(150,213,218);"/>
            </g>
            <g transform="matrix(0.202353,0,0,0.202353,1062.25,234.064)">
                <path d="M0,99.51L0,149.456L-69.721,149.456C-83.548,149.456 -94.868,138.222 -94.868,124.485L-94.868,124.481L-94.868,-24.974C-94.868,-38.711 -83.555,-49.946 -69.721,-49.946L-69.718,-49.946C-55.884,-49.946 -44.569,-38.711 -44.569,-24.974L-44.569,99.51L0,99.51Z" style="fill:rgb(78,151,176);"/>
            </g>
            <g transform="matrix(0.202353,0,0,0.202353,1062.25,239.076)">
                <path d="M0,99.514L0,149.458L-83.126,149.458C-96.954,149.458 -108.27,138.223 -108.27,124.489L-108.27,124.485L-108.27,-24.973C-108.27,-38.707 -96.957,-49.944 -83.126,-49.944L-83.123,-49.944C-69.289,-49.944 -57.976,-38.707 -57.976,-24.973L-57.976,99.514L0,99.514Z" style="fill:rgb(78,151,176);"/>
            </g>
            <g transform="matrix(0.202353,0,0,0.202353,1142.62,242.934)">
                <path d="M0,100.309C27.818,100.309 50.509,77.779 50.509,50.156C50.509,22.533 27.818,0 0,0C-27.818,0 -50.507,22.533 -50.507,50.156C-50.507,77.779 -27.818,100.309 0,100.309" style="fill:rgb(191,112,171);"/>
            </g>
            <g transform="matrix(0.202353,0,0,0.202353,934.661,284.949)">
                <rect x="436.29" y="268.281" width="41.275" height="133.464" style="fill:rgb(163,158,164);"/>
            </g>
            <g transform="matrix(0.202353,0,0,0.202353,934.661,289.478)">
                <rect x="463.444" y="268.278" width="14.124" height="111.089" style="fill:rgb(201,198,201);"/>
            </g>
            <g transform="matrix(0.202353,0,0,0.202353,934.661,284.949)">
                <rect x="797.986" y="268.281" width="41.275" height="133.464" style="fill:rgb(163,158,164);"/>
            </g>
            <g transform="matrix(0.202353,0,0,0.202353,934.661,289.478)">
                <rect x="825.14" y="268.278" width="14.124" height="111.089" style="fill:rgb(201,198,201);"/>
            </g>
            <g transform="matrix(0.202353,0,0,0.202353,999.539,366.244)">
                <path d="M0,52.308L992.691,52.308L992.691,26.151C992.691,11.767 980.836,0 966.357,0L26.335,0C11.858,0 0,11.776 0,26.151L0,52.308Z" style="fill:rgb(121,200,230);"/>
            </g>
            <g transform="matrix(0.00547396,-0.202279,-0.202279,-0.00547396,1105.34,268.561)">
                <path d="M-495.989,-483.442C-481.611,-483.053 -470.169,-470.884 -470.56,-456.41L-495.989,483.268C-496.381,497.739 -508.472,509.275 -522.843,508.886L-495.989,-483.442Z" style="fill:rgb(182,234,250);"/>
            </g>
            <g transform="matrix(0.202353,0,0,0.202353,1093.72,366.244)">
                <path d="M0,-16.167L65.181,-16.167C69.659,-16.167 73.317,-12.53 73.317,-8.085L73.317,0L-8.136,0L-8.136,-8.085C-8.136,-12.53 -4.478,-16.167 0,-16.167" style="fill:rgb(121,200,230);"/>
            </g>
            <g transform="matrix(0.202353,0,0,0.202353,1020.53,366.244)">
                <path d="M0,-16.167L65.181,-16.167C69.659,-16.167 73.317,-12.53 73.317,-8.085L73.317,0L-8.136,0L-8.136,-8.085C-8.136,-12.53 -4.478,-16.167 0,-16.167" style="fill:rgb(121,200,230);"/>
            </g>
            <g transform="matrix(0.202353,0,0,0.202353,1183.7,247.653)">
                <path d="M0,-144.884L56.535,-88.744L-48.904,15.957L-105.439,-40.182C-121.505,-56.14 -121.505,-82.244 -105.439,-98.203L-58.428,-144.884C-42.358,-160.841 -16.066,-160.841 0,-144.884" style="fill:rgb(250,170,110);"/>
            </g>
            <g transform="matrix(0.202353,0,0,0.202353,1162.01,228.13)">
                <path d="M0,0.118C0.557,-0.513 1.138,-1.124 1.74,-1.725L7.56,-7.502L22.789,7.62C14.077,6.51 6.168,5.638 0,0.118" style="fill:rgb(250,92,92);"/>
            </g>
            <g transform="matrix(0.143585,0.142584,0.142584,-0.143585,1179.31,241.863)">
                <path d="M-48.459,-4.789L12.408,-4.789L11.619,-117.571L-49.249,-117.572L-48.459,-4.789Z" style="fill:rgb(250,170,110);"/>
            </g>
            <g transform="matrix(0.202353,0,0,0.202353,991.411,322.391)">
                <path d="M0,-138.047L686.414,-138.047C719.868,-138.047 747.236,-110.87 747.236,-77.646L747.236,-60.401C747.236,-27.176 719.868,0 686.414,0L0,0C-33.459,0 -60.826,-27.176 -60.826,-60.401L-60.826,-77.646C-60.826,-110.87 -33.459,-138.047 0,-138.047" style="fill:rgb(221,250,250);"/>
            </g>
            <g transform="matrix(-0.0145707,-0.201828,-0.201828,0.0145707,1049.54,235.855)">
                <path d="M-405.854,-431.53C-435.745,-426.079 -457.53,-398.505 -455.28,-367.337L-405.854,317.295C-403.603,348.464 -378.084,372.623 -347.719,373.727L-405.854,-431.53Z" style="fill:rgb(121,200,230);"/>
            </g>
            <g transform="matrix(0.202353,0,0,0.202353,1144.57,269.241)">
                <path d="M0,105.856L393.16,-119.549C422.137,-136.162 459.525,-126.209 476.249,-97.44L484.935,-82.504C501.66,-53.738 491.64,-16.605 462.672,0.003L69.509,225.41C40.541,242.018 3.151,232.073 -13.577,203.301L-22.263,188.365C-38.991,159.593 -28.973,122.469 0,105.856" style="fill:rgb(221,250,250);"/>
            </g>
            <g transform="matrix(-0.118465,-0.164051,-0.164051,0.118465,1139.36,264.844)">
                <path d="M-256.136,-448.616C-285.899,-442.372 -306.834,-414.28 -303.568,-383.257L-256.136,67.449C-252.872,98.472 -226.52,121.874 -196.068,122.153L-256.136,-448.616Z" style="fill:rgb(121,200,230);"/>
            </g>
            <g transform="matrix(0.202353,0,0,0.202353,1090.53,318.353)">
                <path d="M0,-61.476L105.356,-61.476C113.721,-61.476 120.558,-54.687 120.558,-46.378L120.558,-15.101C120.558,-6.791 113.721,0 105.356,0L0,0C-8.368,0 -15.207,-6.791 -15.207,-15.101L-15.207,-46.378C-15.207,-54.687 -8.368,-61.476 0,-61.476" style="fill:rgb(99,164,195);"/>
            </g>
            <g transform="matrix(0.202353,0,0,0.202353,1090.53,316.678)">
                <path d="M0,-44.915C-3.761,-44.915 -6.867,-41.831 -6.867,-38.096L-6.867,-6.819C-6.867,-3.08 -3.761,0 0,0L105.35,0C109.115,0 112.216,-3.08 112.216,-6.819L112.216,-38.096C112.216,-41.831 109.115,-44.915 105.35,-44.915L0,-44.915Z" style="fill:rgb(250,250,250);"/>
            </g>
            <g transform="matrix(0.202353,0,0,0.202353,934.661,203.409)">
                <rect x="777.325" y="528.136" width="35.84" height="16.714" style="fill:rgb(99,164,195);"/>
            </g>
            <g transform="matrix(0.202353,0,0,0.202353,934.661,203.409)">
                <rect x="831.092" y="528.136" width="35.84" height="16.714" style="fill:rgb(99,164,195);"/>
            </g>
            <g transform="matrix(0.202353,0,0,0.202353,934.661,261.753)">
                <rect x="427.6" y="351.968" width="58.649" height="80.724" style="fill:rgb(121,200,230);"/>
            </g>
            <g transform="matrix(0.202353,0,0,0.202353,934.661,261.753)">
                <rect x="789.296" y="351.968" width="58.649" height="80.724" style="fill:rgb(121,200,230);"/>
            </g>
            <g transform="matrix(0.202353,0,0,0.202353,1142.54,300.017)">
                <path d="M0,113.296C31.422,113.296 57.049,87.851 57.049,56.649C57.049,25.448 31.422,0 0,0C-31.42,0 -57.046,25.448 -57.046,56.649C-57.046,87.851 -31.42,113.296 0,113.296" style="fill:rgb(99,164,195);"/>
            </g>
            <g transform="matrix(0.202353,0,0,0.202353,1142.54,303.945)">
                <path d="M0,74.478C20.655,74.478 37.502,57.749 37.502,37.238C37.502,16.728 20.655,0 0,0C-20.654,0 -37.501,16.728 -37.501,37.238C-37.501,57.749 -20.654,74.478 0,74.478" style="fill:rgb(250,250,250);"/>
            </g>
            <g transform="matrix(0.202353,0,0,0.202353,1137.87,314.16)">
                <path d="M0,-26.485C-2.918,-21.474 -9.374,-19.754 -14.424,-22.651C-19.474,-25.546 -21.209,-31.961 -18.297,-36.978C-15.376,-41.992 -8.916,-43.709 -3.869,-40.815C1.18,-37.923 2.914,-31.505 0,-26.485M0.003,0.006C2.921,5.02 1.187,11.432 -3.863,14.329C-8.913,17.224 -15.376,15.508 -18.29,10.493C-21.209,5.476 -19.474,-0.939 -14.424,-3.833C-9.374,-6.727 -2.912,-5.012 0.003,0.006M64.508,-36.978C67.427,-31.963 65.695,-25.546 60.642,-22.651C55.592,-19.754 49.13,-21.476 46.215,-26.49C43.297,-31.505 45.031,-37.923 50.081,-40.817C55.134,-43.715 61.594,-41.992 64.508,-36.978M23.11,13.255C28.943,13.255 33.671,17.95 33.671,23.739C33.671,29.531 28.943,34.226 23.11,34.226C17.278,34.226 12.549,29.531 12.549,23.739C12.549,17.95 17.278,13.255 23.11,13.255M23.11,-60.711C28.943,-60.711 33.671,-56.016 33.671,-50.223C33.671,-44.432 28.943,-39.736 23.11,-39.736C17.278,-39.736 12.549,-44.432 12.549,-50.223C12.549,-56.016 17.278,-60.711 23.11,-60.711M64.506,10.493C61.594,15.508 55.13,17.23 50.075,14.332C45.029,11.438 43.297,5.02 46.215,0.006C49.124,-5.012 55.592,-6.727 60.642,-3.833C65.692,-0.939 67.42,5.479 64.506,10.493" style="fill:rgb(250,250,250);"/>
            </g>
            <g transform="matrix(0.202353,0,0,0.202353,1106.01,294.456)">
                <path d="M0,-253.328C57.483,-253.328 107.127,-223.953 130.446,-181.416L214.713,-229.729C255.74,-253.252 308.7,-239.163 332.385,-198.419L332.391,-198.412C356.08,-157.665 341.886,-105.085 300.858,-81.562L173.529,-8.559C172.743,-8.082 171.941,-7.63 171.134,-7.19L171.03,-7.132L171.027,-7.125C162.631,-2.588 153.021,0 142.829,0L0,0L-17.061,0L-297.325,0L-314.202,0L-496.738,0L-496.738,-26.903C-496.738,-50.926 -476.95,-70.576 -452.759,-70.576L-298.325,-70.576C-289.009,-79.281 -276.364,-84.812 -262.516,-85.704L-139.645,-93.64C-142.884,-104.171 -144.62,-115.235 -144.62,-126.661C-144.62,-196.621 -79.869,-253.328 0,-253.328" style="fill:rgb(250,170,110);"/>
            </g>
            <g transform="matrix(0.202353,0,0,0.202353,1102.52,289.279)">
                <path d="M0,25.586L-280.087,25.586L-296.964,25.586L-448.447,25.586L-448.447,0L0,0L0,25.586Z" style="fill:rgb(225,98,83);"/>
            </g>
            <g transform="matrix(0.202353,0,0,0.202353,1147.18,291.449)">
                <path d="M0,-10.868L-29.94,6.299C-30.727,6.776 -31.528,7.228 -32.336,7.668L-32.439,7.726L-32.442,7.733C-40.838,12.27 -50.449,14.858 -60.64,14.858L-203.469,14.858L-220.53,14.858L-448.45,14.858L-448.45,-25.726L0,-25.726L0,-10.868Z" style="fill:rgb(225,98,83);"/>
            </g>
            <g transform="matrix(0.202353,0,0,0.202353,1083.53,252.418)">
                <path d="M0,207.746L-32.191,207.746L-32.191,114.339L-28.545,114.105C-30.13,108.954 -31.356,103.673 -32.191,98.281L-32.191,63.912C-28.46,39.788 -16.972,17.819 0,0L0,207.746Z" style="fill:rgb(225,98,83);"/>
            </g>
            <g transform="matrix(0.202353,0,0,0.202353,1132.41,279.92)">
                <path d="M0,-109.583L84.267,-157.896C125.295,-181.419 178.254,-167.331 201.939,-126.586L201.942,-126.58C225.634,-85.832 211.44,-33.252 170.412,-9.729L43.083,63.274C42.297,63.751 41.498,64.203 40.688,64.646L40.585,64.701L40.581,64.707C32.186,69.245 22.575,71.836 12.384,71.836L0,71.836L0,-109.583Z" style="fill:rgb(191,112,171);"/>
            </g>
            <g transform="matrix(0.202353,0,0,0.202353,1167.9,284.785)">
                <path d="M0,-119.97C-0.487,-37.628 -67.855,28.978 -150.893,28.978C-234.233,28.978 -301.797,-38.113 -301.797,-120.875L-301.788,-121.558L-246.709,-121.558L-246.715,-120.875C-246.715,-68.322 -203.812,-25.719 -150.893,-25.719C-98.242,-25.719 -55.52,-67.891 -55.08,-120.064C-55.107,-120.562 -55.12,-121.054 -55.12,-121.558C-55.12,-136.684 -42.768,-148.948 -27.534,-148.948C-12.302,-148.948 0.048,-136.684 0.048,-121.558C0.048,-121.023 0.03,-120.492 0,-119.97" style="fill:rgb(235,145,200);"/>
            </g>
            <g transform="matrix(0.202353,0,0,0.202353,1112.38,260.188)">
                <path d="M0,-53.374L22.682,-53.374L22.682,0L-22.683,0L-22.683,-30.85C-22.683,-43.238 -12.476,-53.374 0,-53.374" style="fill:rgb(251,196,130);"/>
            </g>
            <g transform="matrix(0.169387,-0.110701,-0.110701,-0.169387,1054.32,282.356)">
                <path d="M13.521,36.232L175.024,36.232L73.336,-119.365L-39.832,-45.405L13.521,36.232Z" style="fill:rgb(70,214,166);"/>
            </g>
            <g transform="matrix(0.169388,-0.110699,-0.110699,-0.169388,1061.55,271.253)">
                <path d="M32.082,9.841L109.887,9.841L9.763,-143.366L-44.757,-107.736L32.082,9.841Z" style="fill:rgb(49,191,144);"/>
            </g>
            <g transform="matrix(0.168648,-0.111824,-0.111824,-0.168648,1062.16,269.891)">
                <path d="M40.199,5.146L108.917,5.146L-3.913,-165.018L-51.645,-133.368L40.199,5.146Z" style="fill:rgb(70,214,166);"/>
            </g>
            <g transform="matrix(0.202353,0,0,0.202353,1174.81,254.402)">
                <path d="M0,-26.497L110.779,-90.008C133.678,-103.135 163.218,-95.275 176.438,-72.539L180.708,-65.194C193.923,-42.464 186.008,-13.13 163.111,-0.001L52.333,63.511C29.433,76.638 -0.107,68.778 -13.323,46.047L-17.593,38.703C-30.812,15.966 -22.896,-13.367 0,-26.497" style="fill:rgb(157,217,237);"/>
            </g>
            <g transform="matrix(0.202353,0,0,0.202353,1174.81,246.785)">
                <path d="M0,11.147L110.785,-52.367C130.549,-63.7 155.259,-59.39 170.161,-43.368C170.847,-26.187 162.173,-9.154 146.21,0.001L35.425,63.515C15.654,74.847 -9.069,70.533 -23.958,54.509C-24.643,37.327 -15.969,20.301 0,11.147" style="fill:rgb(221,250,250);"/>
            </g>
            <g transform="matrix(0.202353,0,0,0.202353,1177.29,275.272)">
                <path d="M0,-310.397L51.216,-310.397C84.815,-310.397 112.296,-283.105 112.296,-249.744L112.296,-91.505C112.296,-75.511 99.122,-62.426 83.013,-62.426L53.905,-62.426L53.905,-31.659C53.905,-14.244 39.559,0 22.022,0L-9.866,0L-9.866,-62.426L-9.866,-161.449L-9.866,-300.599C-9.866,-305.993 -5.428,-310.397 0,-310.397" style="fill:rgb(135,66,66);"/>
            </g>
            <g transform="matrix(0.202353,0,0,0.202353,1180.15,279.368)">
                <path d="M0,-330.64L-14.687,-330.64C-22.763,-330.64 -29.368,-324.08 -29.368,-316.062L-29.368,0L-14.684,0C-6.604,0 0,-6.557 0,-14.578L0,-330.64Z" style="fill:rgb(158,83,83);"/>
            </g>
            <g transform="matrix(0.202353,0,0,0.202353,1018.15,294.457)">
                <path d="M0,-79.023L-79.679,-79.023C-101.566,-79.023 -119.465,-61.246 -119.465,-39.515L-119.465,-39.512C-119.465,-17.778 -101.566,0 -79.679,0L0,0L0,-79.023Z" style="fill:rgb(235,145,200);"/>
            </g>
            <g transform="matrix(0.202353,0,0,0.202353,1014.15,294.456)">
                <path d="M0,-91.511L23.353,-91.511C28.292,-91.511 32.335,-87.499 32.335,-82.591L32.335,-8.921C32.335,-4.009 28.292,0 23.353,0L0,0C-4.943,0 -8.983,-4.009 -8.983,-8.921L-8.983,-82.591C-8.983,-87.499 -4.943,-91.511 0,-91.511" style="fill:rgb(191,112,171);"/>
            </g>
            <g transform="matrix(0.202353,0,0,0.202353,1099.15,293.097)">
                <path d="M0,-65.906C-18.196,-65.906 -33.182,-51.02 -33.182,-32.954L-33.182,-5.89C-33.182,-2.707 -30.46,-0.003 -27.255,-0.003L204.121,-0.003C207.326,-0.003 210.048,-2.707 210.048,-5.89L210.048,-60.019C210.048,-63.203 207.326,-65.906 204.121,-65.906L0,-65.906ZM0,-93.304L204.121,-93.304C222.558,-93.304 237.639,-78.328 237.639,-60.019L237.639,-5.89C237.639,12.421 222.558,27.398 204.121,27.398L-27.255,27.398C-45.693,27.398 -60.775,12.421 -60.775,-5.89L-60.775,-32.954C-60.775,-66.148 -33.427,-93.304 0,-93.304" style="fill:rgb(121,200,230);"/>
            </g>
            <g transform="matrix(0.202353,0,0,0.202353,1145.88,265.926)">
                <ellipse cx="0" cy="-50.157" rx="50.51" ry="50.157" style="fill:rgb(235,145,200);"/>
            </g>
            <g transform="matrix(0.202353,0,0,0.202353,1046.28,264.842)">
                <path d="M0,-199.402L0.003,-199.402C13.834,-199.402 25.15,-188.167 25.15,-174.429L25.15,-49.946L163.298,-49.946L163.298,0L0,0C-13.831,0 -25.147,-11.234 -25.147,-24.971L-25.147,-24.974L-25.147,-174.429C-25.147,-188.167 -13.834,-199.402 0,-199.402" style="fill:rgb(150,213,218);"/>
            </g>
            <g transform="matrix(0.202353,0,0,0.202353,1055.85,240.883)">
                <path d="M0,-34.144L36.587,-34.144C39.404,-34.144 41.701,-31.86 41.701,-29.062L41.701,-5.081C41.701,-2.283 39.404,0 36.587,0L0,0C-2.817,0 -5.117,-2.283 -5.117,-5.081L-5.117,-29.062C-5.117,-31.86 -2.817,-34.144 0,-34.144" style="fill:rgb(49,191,144);"/>
            </g>
            <g transform="matrix(0.202353,0,0,0.202353,934.661,54.3263)">
                <rect x="599.392" y="893.374" width="35.586" height="22.985" style="fill:rgb(250,250,250);"/>
            </g>
            <g transform="matrix(0.202353,0,0,0.202353,1057.63,235.04)">
                <path d="M0,-14.53L2.557,-14.53C3.667,-14.53 4.573,-13.63 4.573,-12.531L4.573,-2.001C4.573,-0.901 3.667,0 2.557,0L0,0C-1.107,0 -2.012,-0.901 -2.012,-2.001L-2.012,-12.531C-2.012,-13.63 -1.107,-14.53 0,-14.53" style="fill:rgb(225,225,225);"/>
            </g>
            <g transform="matrix(0.202353,0,0,0.202353,934.661,165.297)">
                <rect x="582.817" y="623.046" width="77.92" height="15.24" style="fill:rgb(49,191,144);"/>
            </g>
            <g transform="matrix(0.202353,0,0,0.202353,934.661,173.776)">
                <rect x="660.735" y="604.75" width="57.271" height="9.929" style="fill:rgb(49,191,144);"/>
            </g>
            <g transform="matrix(0.202353,0,0,0.202353,1063.14,192.665)">
                <path d="M0,-12.711L0.006,-12.711C2.521,-12.711 4.576,-10.672 4.576,-8.173L4.576,-4.538C4.576,-2.043 2.521,0 0.006,0L0,0C-2.516,0 -4.57,-2.043 -4.57,-4.538L-4.57,-8.173C-4.57,-10.672 -2.516,-12.711 0,-12.711" style="fill:rgb(168,40,77);"/>
            </g>
            <g transform="matrix(0.202353,0,0,0.202353,1170.9,224.449)">
                <path d="M0,-8.996L0.005,-8.991C1.782,-7.226 1.782,-4.341 0.005,-2.576L-2.585,-0.003C-4.361,1.761 -7.267,1.765 -9.047,-0.003L-9.051,-0.006C-10.831,-1.773 -10.828,-4.659 -9.051,-6.423L-6.46,-8.996C-4.683,-10.761 -1.777,-10.761 0,-8.996" style="fill:rgb(168,40,77);"/>
            </g>
            <g transform="matrix(0.202353,0,0,0.202353,1067.28,193.809)">
                <path d="M0,-23.765L-35.192,-23.765L-35.192,-9.97C-35.192,-7.233 -34.058,-4.734 -32.24,-2.93C-30.42,-1.123 -27.906,0.004 -25.15,0.004L0,0.004L0,-23.765ZM-36.853,-27.061L3.319,-27.061L3.319,3.296L-25.15,3.296C-28.824,3.296 -32.17,1.806 -34.589,-0.598C-37.009,-3 -38.511,-6.319 -38.511,-9.97L-38.511,-27.061L-36.853,-27.061Z" style="fill:rgb(225,98,83);"/>
            </g>
            <g transform="matrix(0.202353,0,0,0.202353,934.661,-41.6516)">
                <rect x="577.948" y="1140.2" width="38.924" height="3.632" style="fill:rgb(225,98,83);"/>
            </g>
            <g transform="matrix(0.202353,0,0,0.202353,1050.84,188.873)">
                <path d="M0,32.525C9.019,32.525 16.379,25.221 16.379,16.263C16.379,7.307 9.019,0 0,0C-9.019,0 -16.379,7.307 -16.379,16.263C-16.379,25.221 -9.019,32.525 0,32.525" style="fill:rgb(250,170,110);"/>
            </g>
            <g transform="matrix(0.202353,0,0,0.202353,1050.84,190.639)">
                <path d="M0,15.077C-4.193,15.077 -7.591,11.703 -7.591,7.538C-7.591,3.378 -4.193,0 0,0L0,15.077Z" style="fill:rgb(225,98,83);"/>
            </g>
            <g transform="matrix(0.202353,0,0,0.202353,934.661,-0.0188598)">
                <rect x="715.114" y="933.17" width="238.857" height="211.959" style="fill:rgb(250,238,184);"/>
            </g>
            <g transform="matrix(0.202353,0,0,0.202353,934.661,-0.0188598)">
                <rect x="953.973" y="933.17" width="27.953" height="211.959" style="fill:rgb(250,207,134);"/>
            </g>
            <g transform="matrix(0.202353,0,0,0.202353,1139.36,231.702)">
                <path d="M0,-144.674L-57.599,-144.674L-57.599,0L55.054,0L55.054,-90.002C55.054,-120.07 30.28,-144.674 0,-144.674" style="fill:rgb(250,207,134);"/>
            </g>
            <g transform="matrix(0.202353,0,0,0.202353,1137.55,208.299)">
                <path d="M0,-5.044L33.464,-5.044C34.861,-5.044 36.005,-3.912 36.005,-2.523C36.005,-1.132 34.861,0 33.464,0L0,0C-1.398,0 -2.539,-1.132 -2.539,-2.523C-2.539,-3.912 -1.398,-5.044 0,-5.044" style="fill:rgb(250,238,184);"/>
            </g>
            <g transform="matrix(0.202353,0,0,0.202353,1137.55,210.427)">
                <path d="M0,-5.042L33.464,-5.042C34.861,-5.042 36.005,-3.908 36.005,-2.521C36.005,-1.133 34.861,0 33.464,0L0,0C-1.398,0 -2.539,-1.133 -2.539,-2.521C-2.539,-3.908 -1.398,-5.042 0,-5.042" style="fill:rgb(250,238,184);"/>
            </g>
            <g transform="matrix(0.202353,0,0,0.202353,1137.55,212.555)">
                <path d="M0,-5.041L33.464,-5.041C34.861,-5.041 36.005,-3.908 36.005,-2.521C36.005,-1.132 34.861,0 33.464,0L0,0C-1.398,0 -2.539,-1.132 -2.539,-2.521C-2.539,-3.908 -1.398,-5.041 0,-5.041" style="fill:rgb(250,238,184);"/>
            </g>
            <g transform="matrix(0.202353,0,0,0.202353,1137.55,224.553)">
                <path d="M0,-5.041L33.464,-5.041C34.861,-5.041 36.005,-3.908 36.005,-2.521C36.005,-1.132 34.861,0 33.464,0L0,0C-1.398,0 -2.539,-1.132 -2.539,-2.521C-2.539,-3.908 -1.398,-5.041 0,-5.041" style="fill:rgb(250,238,184);"/>
            </g>
            <g transform="matrix(0.202353,0,0,0.202353,1137.55,226.681)">
                <path d="M0,-5.041L33.464,-5.041C34.861,-5.041 36.005,-3.908 36.005,-2.52C36.005,-1.132 34.861,0 33.464,0L0,0C-1.398,0 -2.539,-1.132 -2.539,-2.52C-2.539,-3.908 -1.398,-5.041 0,-5.041" style="fill:rgb(250,238,184);"/>
            </g>
            <g transform="matrix(0.202353,0,0,0.202353,1137.55,228.81)">
                <path d="M0,-5.045L33.464,-5.045C34.861,-5.045 36.005,-3.911 36.005,-2.521C36.005,-1.133 34.861,0 33.464,0L0,0C-1.398,0 -2.539,-1.133 -2.539,-2.521C-2.539,-3.911 -1.398,-5.045 0,-5.045" style="fill:rgb(250,238,184);"/>
            </g>
            <g transform="matrix(0.202353,0,0,0.202353,1066.73,236.995)">
                <path d="M0,-26.15L442.599,-26.15L442.599,-13.075C442.599,-5.882 436.672,0 429.435,0L13.167,0C5.93,0 0,-5.882 0,-13.075L0,-26.15Z" style="fill:rgb(250,207,134);"/>
            </g>
            <g transform="matrix(0.202353,0,0,0.202353,1066.73,236.995)">
                <path d="M0,-26.15L310.921,-26.15L310.921,-13.072C310.921,-5.879 305.005,0 297.757,0L13.167,0C5.915,0 0,-5.879 0,-13.072L0,-26.15Z" style="fill:rgb(250,238,184);"/>
            </g>
            <g transform="matrix(0.202353,0,0,0.202353,1075.95,245.596)">
                <path d="M0,-35.593L95.994,-35.593L57.651,0L-38.346,0L0,-35.593Z" style="fill:rgb(250,250,250);"/>
            </g>
            <g transform="matrix(0.202353,0,0,0.202353,1067.44,247.672)">
                <path d="M0,-6.533L17.62,-6.533L10.583,0L-7.038,0L0,-6.533Z" style="fill:rgb(250,250,250);"/>
            </g>
            <g transform="matrix(0.202353,0,0,0.202353,1071.44,247.672)">
                <path d="M0,-6.533L17.62,-6.533L10.583,0L-7.038,0L0,-6.533Z" style="fill:rgb(250,250,250);"/>
            </g>
            <g transform="matrix(0.202353,0,0,0.202353,1075.44,247.672)">
                <path d="M0,-6.533L17.62,-6.533L10.583,0L-7.04,0L0,-6.533Z" style="fill:rgb(250,250,250);"/>
            </g>
            <g transform="matrix(0.202353,0,0,0.202353,1079.43,247.672)">
                <path d="M0,-6.533L17.624,-6.533L10.583,0L-7.037,0L0,-6.533Z" style="fill:rgb(70,214,166);"/>
            </g>
            <g transform="matrix(0.202353,0,0,0.202353,1083.43,247.672)">
                <path d="M0,-6.533L17.621,-6.533L10.583,0L-7.037,0L0,-6.533Z" style="fill:rgb(70,214,166);"/>
            </g>
            <g transform="matrix(0.202353,0,0,0.202353,1077.7,244.511)">
                <path d="M0,-24.872L67.075,-24.872L40.281,0L-26.794,0L0,-24.872Z" style="fill:rgb(53,114,176);"/>
            </g>
            <g transform="matrix(0.202353,0,0,0.202353,1078.18,241.395)">
                <path d="M0,-6.533L17.621,-6.533L10.58,0L-7.041,0L0,-6.533Z" style="fill:rgb(70,214,166);"/>
            </g>
            <g transform="matrix(0.202353,0,0,0.202353,1082.54,241.395)">
                <path d="M0,-6.533L17.623,-6.533L10.583,0L-7.038,0L0,-6.533Z" style="fill:rgb(70,214,166);"/>
            </g>
            <g transform="matrix(0.202353,0,0,0.202353,1092.06,262.534)">
                <path d="M0,-62.473C17.373,-62.473 31.457,-48.489 31.457,-31.238C31.457,-13.986 17.373,0 0,0C-14.005,0 -25.873,-9.09 -29.95,-21.652L-30.381,-21.652C-38.429,-21.652 -45.014,-28.188 -45.014,-36.182L-45.014,-47.806C-45.014,-55.8 -38.429,-62.336 -30.381,-62.336L-2.952,-62.336C-1.979,-62.424 -0.997,-62.473 0,-62.473" style="fill:rgb(250,250,250);"/>
            </g>
            <g transform="matrix(0.202353,0,0,0.202353,1090.2,259.45)">
                <path d="M0,0.007L0,-22.521L-53.748,-22.521L-53.748,22.528L-22.683,22.528C-10.206,22.528 0,12.395 0,0.007" style="fill:rgb(251,196,130);"/>
            </g>
            <g transform="matrix(0.202353,0,0,0.202353,1075.51,254.735)">
                <path d="M0,-73.051L18.877,-73.051C27.626,-73.051 35.583,-69.492 41.349,-63.77C47.13,-58.026 50.711,-50.126 50.711,-41.436L50.711,-16.626L42.417,-16.626L42.417,-41.436C42.417,-47.864 39.767,-53.713 35.507,-57.95C31.24,-62.181 25.35,-64.815 18.877,-64.815L0,-64.815C-6.472,-64.815 -12.363,-62.181 -16.63,-57.95C-20.891,-53.713 -23.538,-47.864 -23.538,-41.436L-23.538,0L-31.834,0L-31.834,-41.436C-31.834,-50.126 -28.253,-58.026 -22.486,-63.752C-16.706,-69.492 -8.747,-73.051 0,-73.051" style="fill:rgb(199,199,199);"/>
            </g>
            <g transform="matrix(0.202353,0,0,0.202353,1084.41,252.583)">
                <path d="M0,-19.976L5.863,-19.976C8.176,-19.976 10.063,-18.099 10.063,-15.803L10.063,0L-4.202,0L-4.202,-15.803C-4.202,-18.099 -2.312,-19.976 0,-19.976" style="fill:rgb(250,250,250);"/>
            </g>
            <g transform="matrix(0.202353,0,0,0.202353,934.661,-0.0186574)">
                <rect x="735.969" y="951.682" width="197.139" height="174.934" style="fill:rgb(64,92,100);"/>
            </g>
            <g transform="matrix(0.202353,0,0,0.202353,934.661,-0.0186574)">
                <rect x="735.973" y="951.682" width="6.662" height="174.934" style="fill:rgb(38,66,74);"/>
            </g>
            <g transform="matrix(0.202353,0,0,0.202353,1099.18,223.141)">
                <path d="M0,-122.282L-64.288,-39.405C-41.483,-15.159 -9.001,0 27.047,0C63.096,0 95.578,-15.159 118.383,-39.405L54.095,-122.282C45.381,-120.375 36.337,-119.36 27.047,-119.36C17.758,-119.36 8.714,-120.375 0,-122.282" style="fill:rgb(115,143,151);"/>
            </g>
            <g transform="matrix(0.202353,0,0,0.202353,1099.49,206.679)">
                <path d="M0,16.578L0,0.004C0,-3.201 2.639,-5.825 5.866,-5.825L5.87,-5.825C9.096,-5.825 11.736,-3.201 11.736,0.004L11.736,16.578C11.736,19.782 9.096,22.403 5.87,22.403L5.866,22.403C2.639,22.403 0,19.782 0,16.578" style="fill:rgb(64,92,100);"/>
            </g>
            <g transform="matrix(0.202353,0,0,0.202353,1100.68,208.854)">
                <path d="M0,11.656L16.694,11.656C19.921,11.656 22.56,9.032 22.56,5.828C22.56,2.624 19.921,0 16.694,0L0,0C-3.227,0 -5.866,2.624 -5.866,5.828C-5.866,9.032 -3.227,11.656 0,11.656" style="fill:rgb(64,92,100);"/>
            </g>
            <g transform="matrix(0.202353,0,0,0.202353,1096.67,215.482)">
                <path d="M0,-31.545L18.654,-13.021C22.26,-9.44 22.26,-3.579 18.654,0.003C15.048,3.584 9.145,3.584 5.535,0.003L-13.118,-18.521C-16.724,-22.102 -16.724,-27.964 -13.118,-31.545L-13.115,-31.545C-9.509,-35.129 -3.609,-35.129 0,-31.545" style="fill:rgb(64,92,100);"/>
            </g>
            <g transform="matrix(0.202353,0,0,0.202353,1094.02,215.482)">
                <path d="M0,-31.545L-18.655,-13.021C-22.261,-9.44 -22.261,-3.579 -18.655,0.003C-15.046,3.584 -9.142,3.584 -5.536,0.003L13.118,-18.521C16.724,-22.102 16.724,-27.964 13.118,-31.545C9.509,-35.129 3.609,-35.129 0,-31.545" style="fill:rgb(64,92,100);"/>
            </g>
            <g transform="matrix(0.202353,0,0,0.202353,1114.67,215.523)">
                <path d="M0,-44.174C12.282,-31.978 12.282,-12.198 0,-0.001C-12.287,12.197 -32.202,12.197 -44.485,-0.001C-56.768,-12.198 -56.768,-31.978 -44.485,-44.174C-32.202,-56.371 -12.287,-56.371 0,-44.174" style="fill:rgb(166,194,202);"/>
            </g>
            <g transform="matrix(0.202353,0,0,0.202353,1112.29,210.806)">
                <path d="M0,5.851C2.288,8.123 5.863,8.344 8.402,6.513L7.726,5.842C5.496,6.68 2.967,6.276 1.27,4.591C-0.432,2.906 -0.838,0.393 0.01,-1.821L-0.667,-2.493C-2.511,0.029 -2.291,3.576 0,5.851" style="fill:rgb(64,92,100);"/>
            </g>
            <g transform="matrix(0.202353,0,0,0.202353,1108.67,207.211)">
                <path d="M0,5.847C2.292,8.122 5.866,8.343 8.405,6.508L7.73,5.837C5.5,6.678 2.97,6.274 1.27,4.589C-0.427,2.9 -0.834,0.389 0.013,-1.826L-0.664,-2.496C-2.511,0.025 -2.288,3.574 0,5.847" style="fill:rgb(64,92,100);"/>
            </g>
            <g transform="matrix(0.202353,0,0,0.202353,1106.45,207.355)">
                <path d="M0,-7.618C2.117,-5.514 2.117,-2.105 0,-0.001C-2.119,2.105 -5.555,2.105 -7.671,-0.001C-9.791,-2.105 -9.791,-5.514 -7.671,-7.618C-5.555,-9.723 -2.119,-9.723 0,-7.618" style="fill:rgb(166,194,202);"/>
            </g>
            <g transform="matrix(0.202353,0,0,0.202353,1115.45,216.294)">
                <path d="M0,-7.619C2.117,-5.515 2.117,-2.106 0,-0.002C-2.119,2.104 -5.555,2.104 -7.671,-0.002C-9.791,-2.106 -9.791,-5.515 -7.671,-7.619C-5.555,-9.723 -2.119,-9.723 0,-7.619" style="fill:rgb(166,194,202);"/>
            </g>
            <g transform="matrix(0.202353,0,0,0.202353,1105.76,218.93)">
                <path d="M0,-36.432C10.133,-26.372 10.133,-10.059 0,0.003C-10.13,10.062 -26.557,10.062 -36.69,0.003C-46.821,-10.059 -46.821,-26.372 -36.69,-36.432C-26.557,-46.494 -10.13,-46.494 0,-36.432" style="fill:rgb(191,219,227);"/>
            </g>
            <g transform="matrix(0.202353,0,0,0.202353,1097.49,219.186)">
                <path d="M0,-31.55L18.654,-13.023C22.26,-9.443 22.26,-3.581 18.654,0C15.048,3.581 9.146,3.581 5.536,0L-13.119,-18.523C-16.724,-22.104 -16.724,-27.966 -13.119,-31.547L-13.115,-31.55C-9.509,-35.131 -3.609,-35.131 0,-31.55" style="fill:rgb(166,194,202);"/>
            </g>
            <g transform="matrix(0.202353,0,0,0.202353,1094.84,219.186)">
                <path d="M0,-31.55L-18.654,-13.023C-22.26,-9.443 -22.26,-3.581 -18.654,0L-18.652,0C-15.044,3.581 -9.142,3.581 -5.536,0L13.119,-18.523C16.725,-22.104 16.725,-27.966 13.119,-31.547L13.119,-31.55C9.509,-35.131 3.609,-35.131 0,-31.55" style="fill:rgb(166,194,202);"/>
            </g>
            <g transform="matrix(0.202353,0,0,0.202353,1103.87,216.126)">
                <path d="M0,19.961L-11.8,8.242C-14.085,5.974 -14.082,2.266 -11.8,0C-9.519,-2.265 -5.784,-2.265 -3.502,0L8.301,11.72C10.582,13.987 10.582,17.695 8.301,19.961L8.298,19.961C6.016,22.226 2.284,22.226 0,19.961" style="fill:rgb(217,245,253);"/>
            </g>
            <g transform="matrix(0.202353,0,0,0.202353,1105.55,216.126)">
                <path d="M0,19.961L11.803,8.242C14.085,5.974 14.085,2.266 11.803,0C9.521,-2.265 5.787,-2.265 3.506,0L-8.298,11.72C-10.58,13.987 -10.58,17.695 -8.298,19.961C-6.013,22.226 -2.282,22.226 0,19.961" style="fill:rgb(217,245,253);"/>
            </g>
            <g transform="matrix(0.202353,0,0,0.202353,1108.84,211.497)">
                <path d="M0,4.987C1.382,4.987 2.511,3.866 2.511,2.494C2.511,1.121 1.382,0 0,0C-1.382,0 -2.511,1.121 -2.511,2.494C-2.511,3.866 -1.382,4.987 0,4.987" style="fill:rgb(64,92,100);"/>
            </g>
            <g transform="matrix(0.202353,0,0,0.202353,934.661,-27.0558)">
                <rect x="754.364" y="1103.78" width="39.786" height="4.352" style="fill:rgb(115,143,151);"/>
            </g>
            <g transform="matrix(0.202353,0,0,0.202353,934.661,-23.3301)">
                <rect x="754.364" y="1094.57" width="14.834" height="4.352" style="fill:rgb(115,143,151);"/>
            </g>
            <g transform="matrix(0.202353,0,0,0.202353,934.661,-27.0558)">
                <rect x="881.485" y="1103.78" width="39.786" height="4.352" style="fill:rgb(115,143,151);"/>
            </g>
            <g transform="matrix(0.202353,0,0,0.202353,934.661,-22.8546)">
                <rect x="881.485" y="1093.4" width="39.786" height="4.352" style="fill:rgb(115,143,151);"/>
            </g>
            <g transform="matrix(0.202353,0,0,0.202353,934.661,-18.6529)">
                <rect x="909.807" y="1083.02" width="11.463" height="4.352" style="fill:rgb(115,143,151);"/>
            </g>
            <g transform="matrix(0.202353,0,0,0.202353,934.661,25.6587)">
                <rect x="909.807" y="973.526" width="11.463" height="4.352" style="fill:rgb(115,143,151);"/>
            </g>
            <g transform="matrix(0.202353,0,0,0.202353,934.661,26.3366)">
                <rect x="750.99" y="969.842" width="39.114" height="8.37" style="fill:rgb(217,245,253);"/>
            </g>
            <g transform="matrix(0.202353,0,0,0.202353,934.661,30.5383)">
                <rect x="750.987" y="959.46" width="10.451" height="8.37" style="fill:rgb(217,245,253);"/>
            </g>
            <g transform="matrix(0.202353,0,0,0.202353,934.661,30.5383)">
                <rect x="765.989" y="959.46" width="10.451" height="8.37" style="fill:rgb(217,245,253);"/>
            </g>
            <g transform="matrix(0.202353,0,0,0.202353,934.661,30.5383)">
                <rect x="824.662" y="959.46" width="10.451" height="8.37" style="fill:rgb(217,245,253);"/>
            </g>
            <g transform="matrix(0.202353,0,0,0.202353,934.661,-29.1518)">
                <rect x="824.662" y="1106.95" width="10.451" height="8.37" style="fill:rgb(217,245,253);"/>
            </g>
            <g transform="matrix(0.202353,0,0,0.202353,934.661,246.846)">
                <rect x="1181.97" y="215.974" width="369.559" height="426.38" style="fill:rgb(250,238,184);"/>
            </g>
            <g transform="matrix(0.202353,0,0,0.202353,934.661,246.846)">
                <rect x="1392.38" y="215.974" width="159.15" height="426.38" style="fill:rgb(250,207,134);"/>
            </g>
            <g transform="matrix(0.202353,0,0,0.202353,934.661,154.066)">
                <rect x="1161.74" y="642.35" width="389.782" height="32.134" style="fill:rgb(250,250,250);"/>
            </g>
            <g transform="matrix(0.202353,0,0,0.202353,934.661,154.066)">
                <rect x="1405.19" y="642.35" width="194.223" height="32.134" style="fill:rgb(250,207,134);"/>
            </g>
            <g transform="matrix(0.202353,0,0,0.202353,934.661,182.115)">
                <rect x="1197.83" y="553.946" width="164.873" height="70.326" style="fill:white;"/>
            </g>
            <g transform="matrix(0.202353,0,0,0.202353,934.661,182.115)">
                <rect x="1362.7" y="553.946" width="8.444" height="70.326" style="fill:rgb(250,207,134);"/>
            </g>
            <g transform="matrix(0.202353,0,0,0.202353,934.661,225.477)">
                <rect x="1197.83" y="446.802" width="164.873" height="70.328" style="fill:white;"/>
            </g>
            <g transform="matrix(0.202353,0,0,0.202353,934.661,225.477)">
                <rect x="1362.7" y="446.802" width="8.444" height="70.328" style="fill:rgb(250,218,146);"/>
            </g>
            <g transform="matrix(0.202353,0,0,0.202353,934.661,287.677)">
                <rect x="1197.83" y="246.562" width="164.873" height="163.421" style="fill:white;"/>
            </g>
            <g transform="matrix(0.202353,0,0,0.202353,934.661,287.677)">
                <rect x="1362.7" y="246.562" width="8.444" height="163.421" style="fill:rgb(250,207,134);"/>
            </g>
            <g transform="matrix(0.202353,0,0,0.202353,1192.15,299.761)">
                <path d="M0,15.447C4.285,15.447 7.779,11.978 7.779,7.723C7.779,3.468 4.285,0 0,0C-4.285,0 -7.777,3.468 -7.777,7.723C-7.777,11.978 -4.285,15.447 0,15.447" style="fill:rgb(250,238,184);"/>
            </g>
            <g transform="matrix(0.202353,0,0,0.202353,1192.15,320.159)">
                <path d="M0,15.447C4.285,15.447 7.779,11.979 7.779,7.724C7.779,3.469 4.285,0 0,0C-4.285,0 -7.777,3.469 -7.777,7.724C-7.777,11.979 -4.285,15.447 0,15.447" style="fill:rgb(250,238,184);"/>
            </g>
            <g transform="matrix(0.202353,0,0,0.202353,1192.15,341.434)">
                <path d="M0,15.447C4.285,15.447 7.779,11.979 7.779,7.724C7.779,3.468 4.285,0 0,0C-4.285,0 -7.777,3.468 -7.777,7.724C-7.777,11.979 -4.285,15.447 0,15.447" style="fill:rgb(250,238,184);"/>
            </g>
            <g transform="matrix(0.143583,0.142585,0.142585,-0.143583,1217.75,261.74)">
                <path d="M-33.034,-13.614L33.497,-13.614L33.032,-80.142L-33.501,-80.146L-33.034,-13.614Z" style="fill:rgb(182,234,250);"/>
            </g>
            <g transform="matrix(0.143583,0.142585,0.142585,-0.143583,1221.23,261.74)">
                <path d="M-33.034,-13.614L33.497,-13.614L33.032,-80.142L-33.501,-80.146L-33.034,-13.614Z" style="fill:rgb(157,217,237);"/>
            </g>
            <g transform="matrix(0.202353,0,0,0.202353,1201.31,284.047)">
                <path d="M0,-76.978L117.679,-76.978C130.571,-76.978 141.114,-66.509 141.114,-53.707L141.114,0L-23.435,0L-23.435,-53.707C-23.435,-66.509 -12.892,-76.978 0,-76.978" style="fill:rgb(97,160,207);"/>
            </g>
            <g transform="matrix(0.202353,0,0,0.202353,1220.27,284.047)">
                <path d="M0,-76.978L23.939,-76.978C36.831,-76.978 47.374,-66.509 47.374,-53.707L47.374,0L-23.435,0L-23.435,-53.707C-23.435,-66.509 -12.892,-76.978 0,-76.978" style="fill:rgb(65,136,191);"/>
            </g>
            <g transform="matrix(0.202353,0,0,0.202353,999.539,338.937)">
                <path d="M0,-81.771L627.766,-81.771L627.766,-26.147C627.766,-11.769 615.916,0 601.431,0L26.335,0C11.852,0 0,-11.766 0,-26.147L0,-81.771Z" style="fill:rgb(99,164,195);"/>
            </g>
            <g transform="matrix(0.202353,0,0,0.202353,987.541,387.32)">
                <path d="M0,-23.289L123.916,-23.289C130.363,-23.289 135.642,-18.051 135.642,-11.647L135.642,-11.641C135.642,-5.236 130.363,0 123.916,0L0,0L0,-23.289Z" style="fill:rgb(191,112,171);"/>
            </g>
            <g transform="matrix(0.202353,0,0,0.202353,982.587,387.32)">
                <path d="M0,-61.771C34.361,-61.771 62.209,-34.118 62.209,0L-62.205,0C-62.205,-34.118 -34.356,-61.771 0,-61.771" style="fill:rgb(235,145,200);"/>
            </g>
            <g transform="matrix(0.202353,0,0,0.202353,1000.31,393.981)">
                <path d="M0,-23.289L123.912,-23.289C130.36,-23.289 135.639,-18.049 135.639,-11.648L135.639,-11.641C135.639,-5.236 130.36,0 123.912,0L0,0L0,-23.289Z" style="fill:rgb(191,112,171);"/>
            </g>
            <g transform="matrix(0.202353,0,0,0.202353,995.356,393.981)">
                <path d="M0,-61.771C34.357,-61.771 62.206,-34.118 62.206,0L-62.209,0C-62.209,-34.118 -34.357,-61.771 0,-61.771" style="fill:rgb(235,145,200);"/>
            </g>
        </g>
    </g>
</svg>
