<?xml version="1.0" encoding="UTF-8" standalone="no"?>
<!DOCTYPE svg PUBLIC "-//W3C//DTD SVG 1.1//EN" "http://www.w3.org/Graphics/SVG/1.1/DTD/svg11.dtd">
<svg width="100%" height="100%" viewBox="0 0 417 415" version="1.1" xmlns="http://www.w3.org/2000/svg" xmlns:xlink="http://www.w3.org/1999/xlink" xml:space="preserve" xmlns:serif="http://www.serif.com/" style="fill-rule:evenodd;clip-rule:evenodd;stroke-linejoin:round;stroke-miterlimit:1.41421;">
    <rect id="Artboard1" x="0" y="0" width="416.763" height="414.156" style="fill:none;"/>
    <clipPath id="_clip1">
        <rect id="Artboard11" serif:id="Artboard1" x="0" y="0" width="416.763" height="414.156"/>
    </clipPath>
    <g clip-path="url(#_clip1)">
        <g transform="matrix(0.889164,0,0,0.607512,4.34852,-76.7591)">
            <path d="M-4.891,467.542C-4.891,467.542 448.599,473.189 565.49,473.189C682.381,473.189 714.887,507.973 714.887,593.955C714.887,679.938 722.977,763.902 861.091,763.902C999.206,763.902 1434.66,763.901 1434.66,763.901L1434.66,807.786L951.063,807.786L-4.891,807.786L-4.891,467.542Z" style="fill:rgb(193,216,234);"/>
        </g>
        <g transform="matrix(0.571809,0,0,0.571809,114.813,111.287)">
            <path d="M0,22.25L64.199,22.25C65.123,22.25 65.878,23.005 65.878,23.929L65.878,103.025C65.878,103.948 65.123,104.704 64.199,104.704L0,104.704C-0.924,104.704 -1.678,103.948 -1.678,103.025L-1.678,23.929C-1.678,23.005 -0.924,22.25 0,22.25M71.356,22.25L135.555,22.25C136.479,22.25 137.234,23.005 137.234,23.929L137.234,103.025C137.234,103.948 136.479,104.704 135.555,104.704L71.356,104.704C70.433,104.704 69.677,103.948 69.677,103.025L69.677,23.929C69.677,23.005 70.433,22.25 71.356,22.25M142.712,22.25L206.912,22.25C207.834,22.25 208.59,23.005 208.59,23.929L208.59,103.025C208.59,103.948 207.834,104.704 206.912,104.704L142.712,104.704C141.789,104.704 141.033,103.948 141.033,103.025L141.033,23.929C141.033,23.005 141.789,22.25 142.712,22.25M214.068,22.25L278.267,22.25C279.191,22.25 279.947,23.005 279.947,23.929L279.947,103.025C279.947,103.948 279.191,104.704 278.267,104.704L214.068,104.704C213.145,104.704 212.389,103.948 212.389,103.025L212.389,23.929C212.389,23.005 213.145,22.25 214.068,22.25M285.424,22.25L349.624,22.25C350.547,22.25 351.301,23.005 351.301,23.929L351.301,103.025C351.301,103.948 350.547,104.704 349.624,104.704L285.424,104.704C284.5,104.704 283.746,103.948 283.746,103.025L283.746,23.929C283.746,23.005 284.5,22.25 285.424,22.25M0,-148.633L64.199,-148.633C65.123,-148.633 65.878,-147.877 65.878,-146.954L65.878,-67.858C65.878,-66.934 65.123,-66.179 64.199,-66.179L0,-66.179C-0.924,-66.179 -1.678,-66.934 -1.678,-67.858L-1.678,-146.954C-1.678,-147.877 -0.924,-148.633 0,-148.633M71.356,-148.633L135.555,-148.633C136.479,-148.633 137.234,-147.877 137.234,-146.954L137.234,-67.858C137.234,-66.934 136.479,-66.179 135.555,-66.179L71.356,-66.179C70.433,-66.179 69.677,-66.934 69.677,-67.858L69.677,-146.954C69.677,-147.877 70.433,-148.633 71.356,-148.633M142.712,-148.633L206.912,-148.633C207.834,-148.633 208.59,-147.877 208.59,-146.954L208.59,-67.858C208.59,-66.934 207.834,-66.179 206.912,-66.179L142.712,-66.179C141.789,-66.179 141.033,-66.934 141.033,-67.858L141.033,-146.954C141.033,-147.877 141.789,-148.633 142.712,-148.633M214.068,-148.633L278.267,-148.633C279.191,-148.633 279.947,-147.877 279.947,-146.954L279.947,-67.858C279.947,-66.934 279.191,-66.179 278.267,-66.179L214.068,-66.179C213.145,-66.179 212.389,-66.934 212.389,-67.858L212.389,-146.954C212.389,-147.877 213.145,-148.633 214.068,-148.633M285.424,-148.633L349.624,-148.633C350.547,-148.633 351.301,-147.877 351.301,-146.954L351.301,-67.858C351.301,-66.934 350.547,-66.179 349.624,-66.179L285.424,-66.179C284.5,-66.179 283.746,-66.934 283.746,-67.858L283.746,-146.954C283.746,-147.877 284.5,-148.633 285.424,-148.633M-71.355,-148.633L-7.157,-148.633C-6.232,-148.633 -5.478,-147.877 -5.478,-146.954L-5.478,-67.858C-5.478,-66.934 -6.232,-66.179 -7.157,-66.179L-71.355,-66.179C-72.28,-66.179 -73.034,-66.934 -73.034,-67.858L-73.034,-146.954C-73.034,-147.877 -72.28,-148.633 -71.355,-148.633M-72.345,122.689L350.611,122.689C363.867,122.689 374.708,133.531 374.708,146.785L374.708,146.787C374.708,160.039 363.867,170.883 350.611,170.883L-72.345,170.883C-85.599,170.883 -96.441,160.039 -96.441,146.787L-96.441,146.785C-96.441,133.531 -85.599,122.689 -72.345,122.689M-72.345,-46.208L350.611,-46.208C363.867,-46.208 374.708,-35.365 374.708,-22.113L374.708,-22.11C374.708,-8.858 363.867,1.986 350.611,1.986L-72.345,1.986C-85.599,1.986 -96.441,-8.858 -96.441,-22.11L-96.441,-22.113C-96.441,-35.365 -85.599,-46.208 -72.345,-46.208M-71.355,22.25L-7.157,22.25C-6.232,22.25 -5.478,23.005 -5.478,23.929L-5.478,103.025C-5.478,103.948 -6.232,104.704 -7.157,104.704L-71.355,104.704C-72.28,104.704 -73.034,103.948 -73.034,103.025L-73.034,23.929C-73.034,23.005 -72.28,22.25 -71.355,22.25" style="fill:rgb(178,242,255);"/>
        </g>
        <g transform="matrix(0.571809,0,0,0.571809,1.06949,-96.1495)">
            <rect x="333.743" y="235.622" width="181.553" height="108.4" style="fill:rgb(121,128,137);"/>
        </g>
        <g transform="matrix(0.571809,0,0,0.571809,295.72,90.6225)">
            <path d="M0,-53.859L0,17.389L-181.553,17.389L-181.553,-53.859C-178.552,-63.885 -169.22,-71.248 -158.251,-71.248L-23.302,-71.248C-12.333,-71.248 -3.001,-63.885 0,-53.859" style="fill:rgb(92,102,111);"/>
        </g>
        <g transform="matrix(0.571809,0,0,0.571809,206.171,85.5037)">
            <path d="M0,-55.72L12.157,-55.72L12.157,-12.156C12.157,-5.47 6.687,0 0,0L-12.157,0L-12.157,-43.563C-12.157,-50.25 -6.687,-55.72 0,-55.72" style="fill:rgb(190,199,206);"/>
        </g>
        <g transform="matrix(0.571809,0,0,0.571809,222.247,85.5037)">
            <path d="M0,-55.72L-12.156,-55.72L-12.156,-12.156C-12.156,-5.47 -6.687,0 0,0L12.156,0L12.156,-43.563C12.156,-50.25 6.687,-55.72 0,-55.72" style="fill:rgb(190,199,206);"/>
        </g>
        <g transform="matrix(0.571809,0,0,0.571809,197.992,64.3626)">
            <path d="M0,-5.065L21.278,-5.065C22.671,-5.065 23.809,-3.927 23.809,-2.534L23.809,-2.531C23.809,-1.138 22.671,0 21.278,0L0,0C-1.393,0 -2.532,-1.138 -2.532,-2.531L-2.532,-2.534C-2.532,-3.927 -1.393,-5.065 0,-5.065" style="fill:rgb(230,230,230);"/>
        </g>
        <g transform="matrix(0.571809,0,0,0.571809,197.992,70.1549)">
            <path d="M0,-5.065L21.278,-5.065C22.671,-5.065 23.809,-3.926 23.809,-2.532L23.809,-2.53C23.809,-1.137 22.671,0 21.278,0L0,0C-1.393,0 -2.532,-1.137 -2.532,-2.53L-2.532,-2.532C-2.532,-3.926 -1.393,-5.065 0,-5.065" style="fill:rgb(230,230,230);"/>
        </g>
        <g transform="matrix(0.571809,0,0,0.571809,197.992,75.9473)">
            <path d="M0,-5.064L21.278,-5.064C22.671,-5.064 23.809,-3.925 23.809,-2.532L23.809,-2.53C23.809,-1.137 22.671,0 21.278,0L0,0C-1.393,0 -2.532,-1.137 -2.532,-2.53L-2.532,-2.532C-2.532,-3.925 -1.393,-5.064 0,-5.064" style="fill:rgb(230,230,230);"/>
        </g>
        <g transform="matrix(0.571809,0,0,0.571809,197.992,81.7405)">
            <path d="M0,-5.065L21.278,-5.065C22.671,-5.065 23.809,-3.927 23.809,-2.534L23.809,-2.531C23.809,-1.138 22.671,0 21.278,0L0,0C-1.393,0 -2.532,-1.138 -2.532,-2.531L-2.532,-2.534C-2.532,-3.927 -1.393,-5.065 0,-5.065" style="fill:rgb(230,230,230);"/>
        </g>
        <g transform="matrix(0.571809,0,0,0.571809,218.847,64.3626)">
            <path d="M0,-5.065L21.278,-5.065C22.67,-5.065 23.81,-3.927 23.81,-2.534L23.81,-2.531C23.81,-1.138 22.67,0 21.278,0L0,0C-1.394,0 -2.531,-1.138 -2.531,-2.531L-2.531,-2.534C-2.531,-3.927 -1.394,-5.065 0,-5.065" style="fill:rgb(230,230,230);"/>
        </g>
        <g transform="matrix(0.571809,0,0,0.571809,218.847,70.1549)">
            <path d="M0,-5.065L21.278,-5.065C22.67,-5.065 23.81,-3.926 23.81,-2.532L23.81,-2.53C23.81,-1.137 22.67,0 21.278,0L0,0C-1.394,0 -2.531,-1.137 -2.531,-2.53L-2.531,-2.532C-2.531,-3.926 -1.394,-5.065 0,-5.065" style="fill:rgb(230,230,230);"/>
        </g>
        <g transform="matrix(0.571809,0,0,0.571809,218.847,75.9473)">
            <path d="M0,-5.064L21.278,-5.064C22.67,-5.064 23.81,-3.925 23.81,-2.532L23.81,-2.53C23.81,-1.137 22.67,0 21.278,0L0,0C-1.394,0 -2.531,-1.137 -2.531,-2.53L-2.531,-2.532C-2.531,-3.925 -1.394,-5.064 0,-5.064" style="fill:rgb(230,230,230);"/>
        </g>
        <g transform="matrix(0.571809,0,0,0.571809,218.847,81.7405)">
            <path d="M0,-5.065L21.278,-5.065C22.67,-5.065 23.81,-3.927 23.81,-2.534L23.81,-2.531C23.81,-1.138 22.67,0 21.278,0L0,0C-1.394,0 -2.531,-1.138 -2.531,-2.531L-2.531,-2.534C-2.531,-3.927 -1.394,-5.065 0,-5.065" style="fill:rgb(230,230,230);"/>
        </g>
        <g transform="matrix(0.571809,0,0,0.571809,1.06949,-148.304)">
            <rect x="339.718" y="334.033" width="83.896" height="2.787" style="fill:rgb(230,230,230);"/>
        </g>
        <g transform="matrix(0.571809,0,0,0.571809,1.06949,-143.089)">
            <rect x="339.715" y="329.473" width="14.942" height="2.787" style="fill:rgb(230,230,230);"/>
        </g>
        <g transform="matrix(0.571809,0,0,0.571809,1.06949,-56.3047)">
            <rect x="360.117" y="253.588" width="26.847" height="2.786" style="fill:rgb(230,230,230);"/>
        </g>
        <g transform="matrix(0.571809,0,0,0.571809,1.06949,-94.7388)">
            <rect x="419.277" y="263.288" width="33.94" height="50.601" style="fill:rgb(149,158,175);"/>
        </g>
        <g transform="matrix(0.571809,0,0,0.571809,254.105,74.6209)">
            <path d="M0,-16.053C-1.47,-16.053 -2.66,-14.414 -2.66,-12.389C-2.66,-10.365 -1.47,-8.725 0,-8.725C1.469,-8.725 2.659,-10.365 2.659,-12.389C2.659,-14.414 1.469,-16.053 0,-16.053M-10.512,-16.053C-11.98,-16.053 -13.17,-14.414 -13.17,-12.389C-13.17,-10.365 -11.98,-8.725 -10.512,-8.725C-9.041,-8.725 -7.852,-10.365 -7.852,-12.389C-7.852,-14.414 -9.041,-16.053 -10.512,-16.053M-8.351,5.959C-8.036,5.358 -7.852,4.618 -7.852,3.821C-7.852,1.796 -9.041,0.156 -10.512,0.156C-11.519,0.156 -12.394,0.926 -12.845,2.063C-11.633,3.853 -10.09,5.213 -8.351,5.959M2.334,2.063C1.883,0.926 1.007,0.156 0,0.156C-1.47,0.156 -2.66,1.796 -2.66,3.821C-2.66,4.618 -2.474,5.358 -2.16,5.959C-0.421,5.211 1.122,3.851 2.334,2.063M-5.255,-22.012C0.479,-22.012 5.129,-15.607 5.129,-7.704C5.129,-4.694 4.454,-1.903 3.302,0.402C1.431,-3.345 -1.704,-5.803 -5.255,-5.803C-8.808,-5.803 -11.94,-3.345 -13.813,0.402C-14.964,-1.903 -15.639,-4.694 -15.639,-7.704C-15.639,-15.607 -10.991,-22.012 -5.255,-22.012" style="fill:rgb(199,204,211);"/>
        </g>
        <g transform="matrix(0.571809,0,0,0.571809,1.06949,-94.7388)">
            <rect x="461.279" y="263.288" width="33.94" height="50.601" style="fill:rgb(172,179,192);"/>
        </g>
        <g transform="matrix(0.571809,0,0,0.571809,278.122,65.441)">
            <path d="M0,16.053C-1.469,16.053 -2.659,14.412 -2.659,12.388C-2.659,10.365 -1.469,8.723 0,8.723C1.469,8.723 2.66,10.365 2.66,12.388C2.66,14.412 1.469,16.053 0,16.053M-10.511,16.053C-11.979,16.053 -13.169,14.412 -13.169,12.388C-13.169,10.365 -11.979,8.723 -10.511,8.723C-9.04,8.723 -7.851,10.365 -7.851,12.388C-7.851,14.412 -9.04,16.053 -10.511,16.053M-8.351,-5.959C-8.036,-5.358 -7.851,-4.62 -7.851,-3.821C-7.851,-1.798 -9.04,-0.156 -10.511,-0.156C-11.518,-0.156 -12.393,-0.928 -12.845,-2.063C-11.632,-3.853 -10.089,-5.213 -8.351,-5.959M2.334,-2.063C1.884,-0.928 1.008,-0.156 0,-0.156C-1.469,-0.156 -2.659,-1.798 -2.659,-3.821C-2.659,-4.62 -2.475,-5.358 -2.159,-5.959C-0.422,-5.213 1.123,-3.852 2.334,-2.063M-5.255,22.012C0.48,22.012 5.129,15.605 5.129,7.702C5.129,4.693 4.453,1.903 3.303,-0.403C1.431,3.345 -1.703,5.803 -5.255,5.803C-8.807,5.803 -11.939,3.345 -13.813,-0.403C-14.964,1.903 -15.64,4.693 -15.64,7.702C-15.64,15.605 -10.99,22.012 -5.255,22.012" style="fill:rgb(199,204,211);"/>
        </g>
        <g transform="matrix(0.571809,0,0,0.571809,1.06949,-49.5911)">
            <rect x="360.117" y="247.718" width="26.847" height="2.785" style="fill:rgb(230,230,230);"/>
        </g>
        <g transform="matrix(0.571809,0,0,0.571809,1.06949,-56.3047)">
            <rect x="427.552" y="253.588" width="17.941" height="2.786" style="fill:rgb(230,230,230);"/>
        </g>
        <g transform="matrix(0.571809,0,0,0.571809,1.06949,-49.5911)">
            <rect x="427.552" y="247.718" width="17.941" height="2.785" style="fill:rgb(230,230,230);"/>
        </g>
        <g transform="matrix(0.571809,0,0,0.571809,1.06949,-56.3047)">
            <rect x="469.277" y="253.588" width="17.942" height="2.786" style="fill:rgb(230,230,230);"/>
        </g>
        <g transform="matrix(0.571809,0,0,0.571809,1.06949,-49.5911)">
            <rect x="469.277" y="247.718" width="17.942" height="2.785" style="fill:rgb(230,230,230);"/>
        </g>
        <g transform="matrix(0.571809,0,0,0.571809,189.594,40.324)">
            <path d="M0,-9.607L189.641,-9.607L189.641,-4.803C189.641,-2.16 187.479,0 184.836,0L4.805,0C2.161,0 0,-2.16 0,-4.803L0,-9.607Z" style="fill:rgb(199,219,229);"/>
        </g>
        <g transform="matrix(0.571809,0,0,0.571809,189.594,100.565)">
            <path d="M0,9.608L189.641,9.608L189.641,4.803C189.641,2.161 187.479,0 184.836,0L4.805,0C2.161,0 0,2.161 0,4.803L0,9.608Z" style="fill:rgb(199,219,229);"/>
        </g>
        <g transform="matrix(0.571809,0,0,0.571809,1.06949,5.9567)">
            <rect x="255.902" y="190.33" width="28.717" height="20.417" style="fill:rgb(253,177,136);"/>
        </g>
        <g transform="matrix(0.571809,0,0,0.571809,1.06949,13.5795)">
            <rect x="255.902" y="190.33" width="28.717" height="7.086" style="fill:rgb(230,183,145);"/>
        </g>
        <g transform="matrix(0.571809,0,0,0.571809,129.688,97.6904)">
            <path d="M0,41.492L0,10.149C0,4.565 -4.566,0 -10.149,0L-20.299,0L-20.299,31.343C-20.299,36.926 -15.735,41.492 -10.151,41.492L0,41.492Z" style="fill:rgb(84,39,39);"/>
        </g>
        <g transform="matrix(0.571809,0,0,0.571809,122.077,112.104)">
            <path d="M0,4.079L0,11.926C0,19.246 5.99,25.236 13.31,25.236L41.837,25.236C49.158,25.236 55.147,19.246 55.147,11.926L55.147,-3.766C55.147,-11.085 49.158,-17.075 41.837,-17.075L27.973,-17.075C26.414,-19.523 23.676,-21.157 20.576,-21.157L17.266,-21.157C12.602,-21.157 8.758,-17.463 8.516,-12.857C3.355,-8.989 0,-2.828 0,4.079" style="fill:rgb(253,177,136);"/>
        </g>
        <g transform="matrix(0.571809,0,0,0.571809,133.981,119.729)">
            <path d="M0,0.001C0,2.911 2.359,5.271 5.27,5.271C8.18,5.271 10.539,2.911 10.539,0.001C10.539,-2.91 8.18,-5.27 5.27,-5.27C2.359,-5.27 0,-2.91 0,0.001" style="fill:rgb(229,129,92);"/>
        </g>
        <g transform="matrix(0.571809,0,0,0.571809,133.394,104.907)">
            <path d="M0,6.176C0.232,6.23 0.474,6.259 0.723,6.259C2.475,6.259 3.894,4.839 3.894,3.088C3.894,1.337 2.475,-0.083 0.723,-0.083C0.474,-0.083 0.232,-0.054 0,0C1.405,0.327 2.448,1.585 2.448,3.088C2.448,4.59 1.405,5.848 0,6.176" style="fill:rgb(102,51,51);"/>
        </g>
        <g transform="matrix(0.571809,0,0,0.571809,129.688,102.807)">
            <path d="M0,41.494L0,10.151C0,4.567 -4.566,0 -10.149,0L-20.299,0L-20.299,31.345C-20.299,36.927 -15.735,41.494 -10.151,41.494L0,41.494Z" style="fill:rgb(102,51,51);"/>
        </g>
        <g transform="matrix(0.571809,0,0,0.571809,129.688,113.152)">
            <path d="M0,23.403L0,5.725C0,2.576 2.575,0 5.725,0L11.45,0L11.45,17.678C11.45,20.828 8.875,23.403 5.726,23.403L0,23.403Z" style="fill:rgb(102,51,51);"/>
        </g>
        <g transform="matrix(0.571809,0,0,0.571809,129.688,110.699)">
            <path d="M0,27.693L0,6.774C0,3.048 -3.048,0 -6.774,0L-13.549,0L-13.549,20.919C-13.549,24.645 -10.5,27.693 -6.775,27.693L0,27.693Z" style="fill:rgb(84,39,39);"/>
        </g>
        <g transform="matrix(0.571809,0,0,0.571809,129.688,117.785)">
            <path d="M0,15.3L0,3.742C0,1.683 1.683,0 3.743,0L7.486,0L7.486,11.558C7.486,13.616 5.803,15.3 3.744,15.3L0,15.3Z" style="fill:rgb(84,39,39);"/>
        </g>
        <g transform="matrix(0.571809,0,0,0.571809,133.222,119.44)">
            <path d="M0,-0.002C0,2.909 2.361,5.269 5.27,5.269C8.18,5.269 10.54,2.909 10.54,-0.002C10.54,-2.912 8.18,-5.271 5.27,-5.271C2.361,-5.271 0,-2.912 0,-0.002" style="fill:rgb(253,177,136);"/>
        </g>
        <g transform="matrix(0.571809,0,0,0.571809,134.983,120.692)">
            <path d="M0,-2.19C0,-0.981 0.98,0 2.19,0C3.4,0 4.38,-0.981 4.38,-2.19L0,-2.19Z" style="fill:rgb(209,168,134);"/>
        </g>
        <g transform="matrix(0.571809,0,0,0.571809,205.255,100.182)">
            <path d="M0,46.085L-82.166,46.085L-82.166,23.043C-82.166,10.37 -71.796,0 -59.123,0L0,0L0,46.085Z" style="fill:rgb(51,102,153);"/>
        </g>
        <g transform="matrix(0.571809,0,0,0.571809,1.06949,-8.57868)">
            <rect x="332.357" y="190.207" width="49.463" height="46.083" style="fill:rgb(51,102,153);"/>
        </g>
        <g transform="matrix(0.571809,0,0,0.571809,248.157,106.27)">
            <path d="M0,35.438L85.612,35.438L85.612,12.561L-27.021,12.561L-27.021,11.637C-27.021,5.237 -32.257,0 -38.658,0L-50.296,0L-50.296,35.438L0,35.438Z" style="fill:rgb(102,153,51);"/>
        </g>
        <g transform="matrix(0.571809,0,0,0.571809,219.397,125.704)">
            <path d="M0,-14.735L0,1.452L24.654,1.452C24.654,-8.29 16.756,-16.187 7.017,-16.187C4.523,-16.187 2.15,-15.669 0,-14.735" style="fill:rgb(153,204,51);"/>
        </g>
        <g transform="matrix(0.571809,0,0,0.571809,1.06949,8.67337)">
            <rect x="520.265" y="190.207" width="10.895" height="15.912" style="fill:rgb(253,177,136);"/>
        </g>
        <g transform="matrix(0.571809,0,0,0.571809,1.06949,2.23937)">
            <rect x="508.393" y="190.207" width="11.872" height="27.164" style="fill:rgb(122,179,66);"/>
        </g>
        <g transform="matrix(0.571809,0,0,0.571809,1.06949,12.8899)">
            <rect x="508.393" y="190.207" width="11.872" height="8.538" style="fill:rgb(115,171,60);"/>
        </g>
        <g transform="matrix(0.571809,0,0,0.571809,303.723,101.293)">
            <path d="M0,44.142L0,7.474C0,3.363 3.363,0 7.475,0L14.951,0L14.951,44.142L0,44.142Z" style="fill:rgb(253,177,136);"/>
        </g>
        <g transform="matrix(0.571809,0,0,0.571809,230.69,118.454)">
            <path d="M0,14.13L-19.749,14.13L-19.749,1.163C-18.026,0.416 -16.126,0 -14.129,0C-6.326,0 0,6.326 0,14.13" style="fill:rgb(88,135,42);"/>
        </g>
        <g transform="matrix(0.571809,0,0,0.571809,1.06949,-3.93216)">
            <rect x="381.82" y="190.207" width="5.621" height="37.957" style="fill:rgb(153,204,51);"/>
        </g>
        <g transform="matrix(0.571809,0,0,0.571809,209.77,117.347)">
            <path d="M0,-27.046L-6.343,-27.046L-6.343,-17.904C-6.343,-16.465 -6.928,-15.158 -7.867,-14.212C-8.816,-13.271 -10.122,-12.685 -11.562,-12.685L-49.975,-12.685C-50.428,-12.685 -50.874,-12.717 -51.312,-12.777L-51.312,-0.041C-50.869,-0.014 -50.424,0 -49.975,0L-11.562,0C-6.649,0 -2.177,-2.013 1.063,-5.253L1.089,-5.277C4.33,-8.521 6.344,-12.991 6.344,-17.904L6.344,-27.046L0,-27.046Z" style="fill:rgb(81,132,184);"/>
        </g>
        <g transform="matrix(0.571809,0,0,0.571809,160.635,115.086)">
            <path d="M0,-0.004L0,-0.001C0,7.247 5.931,13.179 13.18,13.179L34.619,13.179L34.619,-13.183L13.18,-13.183C5.931,-13.183 0,-7.253 0,-0.004" style="fill:rgb(122,169,217);"/>
        </g>
        <g transform="matrix(0.571809,0,0,0.571809,160.635,120.663)">
            <path d="M0,-9.755C0,-2.505 5.931,3.427 13.181,3.427L34.619,3.427L34.619,-3.429L13.181,-3.429C7.115,-3.429 1.974,-7.581 0.456,-13.182C0.158,-12.088 0,-10.94 0,-9.755" style="fill:rgb(81,132,184);"/>
        </g>
        <g transform="matrix(0.571809,0,0,0.571809,1.06949,-37.3578)">
            <rect x="360.321" y="233.318" width="9.14" height="10.191" style="fill:rgb(253,177,136);"/>
        </g>
        <g transform="matrix(0.571809,0,0,0.571809,209.77,100.183)">
            <path d="M0,-10.388C-5.75,-10.388 -10.412,-5.742 -10.442,0L10.441,0C10.412,-5.742 5.749,-10.388 0,-10.388" style="fill:rgb(253,177,136);"/>
        </g>
        <g transform="matrix(0.571809,0,0,0.571809,209.763,100.183)">
            <path d="M0,-10.388C-5.748,-10.388 -10.411,-5.742 -10.44,0L-7.458,0C-7.43,-5.237 -3.551,-9.56 1.492,-10.282C1.006,-10.351 0.507,-10.388 0,-10.388" style="fill:rgb(229,129,92);"/>
        </g>
        <g transform="matrix(0.571809,0,0,0.571809,146.558,103.885)">
            <path d="M0,5.337C1.47,5.337 2.668,4.139 2.668,2.669C2.668,1.198 1.47,0 0,0C-1.471,0 -2.668,1.198 -2.668,2.669C-2.668,4.139 -1.471,5.337 0,5.337" style="fill:rgb(255,97,97);"/>
        </g>
        <g transform="matrix(0.571809,0,0,0.571809,12.5817,193.256)">
            <path d="M0,-257.238L2.802,-257.238L2.802,-24.06C2.802,-18.98 4.876,-14.366 8.214,-11.029L8.226,-11.017C11.564,-7.679 16.178,-5.604 21.258,-5.604L34.357,-5.604L34.357,0L21.258,0C14.652,0 8.638,-2.705 4.273,-7.064L4.262,-7.076C-0.096,-11.44 -2.803,-17.455 -2.803,-24.06L-2.803,-257.238L0,-257.238Z" style="fill:rgb(86,143,162);"/>
        </g>
        <g transform="matrix(0.571809,0,0,0.571809,159.905,20.918)">
            <path d="M0,-17.799L130.434,-17.799L130.434,-8.9L121.536,0L8.898,0L0,-8.9L0,-17.799Z" style="fill:rgb(178,242,255);"/>
        </g>
        <g transform="matrix(0.571809,0,0,0.571809,38.915,117.223)">
            <path d="M0,-82.401C-15.506,-81.164 -27.813,-68.088 -27.813,-52.277L-27.813,0L-24.221,0C-10.899,0 0,-10.899 0,-24.221L0,-82.401Z" style="fill:rgb(86,143,162);"/>
        </g>
        <g transform="matrix(0.571809,0,0,0.571809,27.6185,199.892)">
            <path d="M0,-164.697L0.001,-164.697C4.434,-164.697 8.06,-161.072 8.06,-156.638L8.06,-8.057C8.06,-3.626 4.434,0 0.001,0L0,0C-4.432,0 -8.058,-3.626 -8.058,-8.057L-8.058,-156.638C-8.058,-161.072 -4.432,-164.697 0,-164.697" style="fill:rgb(205,221,233);"/>
        </g>
        <g transform="matrix(0.571809,0,0,0.571809,268.746,130.82)">
            <path d="M0,-10.554L84.419,-10.554C87.32,-10.554 89.693,-8.18 89.693,-5.279L89.693,-5.276C89.693,-2.373 87.32,0 84.419,0L0,0L0,-10.554Z" style="fill:rgb(86,143,162);"/>
        </g>
        <g transform="matrix(0.571809,0,0,0.571809,43.6863,207.71)">
            <path d="M0,-54.682L129.507,-54.682C144.544,-54.682 156.846,-42.38 156.846,-27.341L156.846,0L-27.339,0L-27.339,-27.341C-27.339,-42.38 -15.037,-54.682 0,-54.682" style="fill:rgb(192,216,233);"/>
        </g>
        <g transform="matrix(0.571809,0,0,0.571809,70.2835,195.084)">
            <path d="M0,-271.482L30.696,-271.482C56.022,-271.482 76.743,-250.761 76.743,-225.435L76.743,-46.047C76.743,-20.721 56.022,0 30.696,0L0,0C-25.327,0 -46.047,-20.721 -46.047,-46.047L-46.047,-225.435C-46.047,-250.761 -25.327,-271.482 0,-271.482" style="fill:rgb(86,143,162);"/>
        </g>
        <g transform="matrix(0.571809,0,0,0.571809,114.166,194.498)">
            <path d="M0,-105.524L0,-46.046C0,-20.721 -20.72,0 -46.047,0L-76.743,0C-102.069,0 -122.79,-20.721 -122.79,-46.046L-122.79,-105.524C-122.79,-80.197 -102.069,-59.477 -76.743,-59.477L-46.047,-59.477C-20.72,-59.477 0,-80.197 0,-105.524" style="fill:rgb(75,134,153);"/>
        </g>
        <g transform="matrix(0.571809,0,0,0.571809,114.166,162.994)">
            <path d="M0,-169.314L7.437,-169.314L14.873,-161.879L14.873,-7.435L7.437,0L0,0L0,-169.314Z" style="fill:rgb(187,226,243);"/>
        </g>
        <g transform="matrix(0.571809,0,0,0.571809,122.67,162.994)">
            <path d="M0,-65.473L0,-7.437L-7.435,0L-14.873,0L-14.873,-58.037L-7.435,-58.037L0,-65.473Z" style="fill:rgb(158,198,218);"/>
        </g>
        <g transform="matrix(0.571809,0,0,0.571809,109.338,135.296)">
            <path d="M0,-88.789L0.004,-88.789C1.373,-88.789 2.494,-87.669 2.494,-86.299L2.494,-2.491C2.494,-1.121 1.373,0 0.004,0L0,0C-1.37,0 -2.49,-1.121 -2.49,-2.491L-2.49,-86.299C-2.49,-87.669 -1.37,-88.789 0,-88.789" style="fill:rgb(112,171,191);"/>
        </g>
        <g transform="matrix(0.571809,0,0,0.571809,109.338,81.4175)">
            <path d="M0,-11.778L0.004,-11.778C1.373,-11.778 2.494,-10.658 2.494,-9.288L2.494,-2.49C2.494,-1.12 1.373,0 0.004,0L0,0C-1.37,0 -2.49,-1.12 -2.49,-2.49L-2.49,-9.288C-2.49,-10.658 -1.37,-11.778 0,-11.778" style="fill:rgb(112,171,191);"/>
        </g>
        <g transform="matrix(0.571809,0,0,0.571809,125.69,153.673)">
            <path d="M0,-60.437L292.587,-60.437L292.587,-30.22C292.587,-13.6 278.989,0 262.369,0L0,0L0,-60.437Z" style="fill:rgb(225,241,247);"/>
        </g>
        <g transform="matrix(0.571809,0,0,0.571809,292.939,153.672)">
            <path d="M0,-27.814C-1.235,-12.307 -14.312,0 -30.122,0L-214.785,0L-214.785,-3.592C-214.785,-16.915 -203.884,-27.814 -190.562,-27.814L0,-27.814Z" style="fill:rgb(158,198,218);"/>
        </g>
        <g transform="matrix(0.571809,0,0,0.571809,1.06949,8.28053)">
            <rect x="217.942" y="193.83" width="292.586" height="9.353" style="fill:rgb(158,198,218);"/>
        </g>
        <g transform="matrix(0.571809,0,0,0.571809,28.3273,213.193)">
            <path d="M0,-23.982L190.902,-23.982L202.893,-11.992L202.893,0L-11.99,0L-11.99,-11.992L0,-23.982Z" style="fill:rgb(86,143,162);"/>
        </g>
        <g transform="matrix(-0.571809,0,0,0.571809,164.745,184.235)">
            <rect x="35.679" y="38.653" width="214.883" height="11.992" style="fill:rgb(75,134,153);"/>
        </g>
        <g transform="matrix(0.571809,0,0,0.571809,256.793,175.346)">
            <path d="M0,-37.903L-151.571,-37.903L-151.571,-18.951C-151.571,-8.527 -143.042,0 -132.62,0L-18.951,0C-8.527,0 0,-8.527 0,-18.951L0,-37.903Z" style="fill:rgb(225,241,247);"/>
        </g>
        <g transform="matrix(-0.404304,0.404356,0.404356,0.404304,190.97,198.356)">
            <path d="M-57.197,0.291L-24.103,0.291L-0.121,-23.694L-33.216,-23.693L-57.197,0.291Z" style="fill:rgb(158,198,218);"/>
        </g>
        <g transform="matrix(-0.404295,0.404364,0.404364,0.404295,208.524,198.356)">
            <path d="M-57.196,0.291L-24.102,0.291L-0.121,-23.694L-33.216,-23.693L-57.196,0.291Z" style="fill:rgb(205,221,233);"/>
        </g>
        <g transform="matrix(0.571809,0,0,0.571809,256.793,188.728)">
            <path d="M0,42.786L-151.571,42.786L-151.571,21.392C-151.571,9.626 -141.944,0 -130.177,0L-21.394,0C-9.627,0 0,9.626 0,21.392L0,42.786Z" style="fill:rgb(86,143,162);"/>
        </g>
        <g transform="matrix(0.571809,0,0,0.571809,256.793,188.728)">
            <path d="M0,42.786L-20.146,42.786L-20.146,21.393C-20.146,9.626 -29.771,0 -41.538,0L-21.394,0C-9.627,0 0,9.626 0,21.393L0,42.786Z" style="fill:rgb(75,134,153);"/>
        </g>
        <g transform="matrix(0.571809,0,0,0.571809,1.06949,-10.7321)">
            <rect x="107.228" y="180.666" width="58.327" height="68.931" style="fill:rgb(112,171,191);"/>
        </g>
        <g transform="matrix(0.571809,0,0,0.571809,1.06949,-28.4708)">
            <rect x="110.144" y="215.133" width="52.495" height="31.019" style="fill:rgb(145,197,214);"/>
        </g>
        <g transform="matrix(0.571809,0,0,0.571809,1.06949,-5.27419)">
            <rect x="110.144" y="207.707" width="9.242" height="5.304" style="fill:rgb(145,197,214);"/>
        </g>
        <g transform="matrix(0.571809,0,0,0.571809,1.06949,-5.27419)">
            <rect x="120.958" y="207.707" width="9.242" height="5.304" style="fill:rgb(167,232,232);"/>
        </g>
        <g transform="matrix(0.571809,0,0,0.571809,1.06949,-5.27419)">
            <rect x="131.77" y="207.707" width="9.242" height="5.304" style="fill:rgb(145,197,214);"/>
        </g>
        <g transform="matrix(0.571809,0,0,0.571809,1.06949,-5.27419)">
            <rect x="142.583" y="207.707" width="9.242" height="5.304" style="fill:rgb(185,224,237);"/>
        </g>
        <g transform="matrix(0.571809,0,0,0.571809,1.06949,-5.27419)">
            <rect x="153.397" y="207.707" width="9.242" height="5.304" style="fill:rgb(185,224,237);"/>
        </g>
        <g transform="matrix(0.571809,0,0,0.571809,1.06949,2.60819)">
            <rect x="110.144" y="200.815" width="9.242" height="5.303" style="fill:rgb(167,232,232);"/>
        </g>
        <g transform="matrix(0.571809,0,0,0.571809,1.06949,2.60819)">
            <rect x="120.958" y="200.815" width="9.242" height="5.303" style="fill:rgb(145,197,214);"/>
        </g>
        <g transform="matrix(0.571809,0,0,0.571809,1.06949,2.60819)">
            <rect x="131.77" y="200.815" width="9.242" height="5.303" style="fill:rgb(145,197,214);"/>
        </g>
        <g transform="matrix(0.571809,0,0,0.571809,1.06949,2.60819)">
            <rect x="142.583" y="200.815" width="9.242" height="5.303" style="fill:rgb(145,197,214);"/>
        </g>
        <g transform="matrix(0.571809,0,0,0.571809,1.06949,2.60819)">
            <rect x="153.397" y="200.815" width="9.242" height="5.303" style="fill:rgb(145,197,214);"/>
        </g>
        <g transform="matrix(0.571809,0,0,0.571809,1.06949,21.1016)">
            <rect x="120.958" y="184.643" width="9.242" height="5.305" style="fill:rgb(250,180,180);"/>
        </g>
        <g transform="matrix(0.571809,0,0,0.571809,1.06949,21.1016)">
            <rect x="131.77" y="184.643" width="9.242" height="5.305" style="fill:rgb(250,180,180);"/>
        </g>
        <g transform="matrix(0.571809,0,0,0.571809,1.06949,-29.1438)">
            <rect x="113.228" y="219.101" width="14.694" height="24.26" style="fill:rgb(185,224,237);"/>
        </g>
        <g transform="matrix(0.571809,0,0,0.571809,75.7001,97.5041)">
            <path d="M0,-2.386L12.31,-2.386C12.966,-2.386 13.503,-1.849 13.503,-1.193C13.503,-0.535 12.966,0 12.31,0L0,0C-0.657,0 -1.193,-0.535 -1.193,-1.193C-1.193,-1.849 -0.657,-2.386 0,-2.386" style="fill:rgb(185,224,237);"/>
        </g>
        <g transform="matrix(0.571809,0,0,0.571809,85.0233,97.5041)">
            <path d="M0,-2.386L1.914,-2.386C2.571,-2.386 3.107,-1.849 3.107,-1.193C3.107,-0.535 2.571,0 1.914,0L0,0C-0.657,0 -1.193,-0.535 -1.193,-1.193C-1.193,-1.849 -0.657,-2.386 0,-2.386" style="fill:rgb(185,224,237);"/>
        </g>
        <g transform="matrix(0.571809,0,0,0.571809,75.7001,99.9307)">
            <path d="M0,-2.387L12.31,-2.387C12.966,-2.387 13.503,-1.85 13.503,-1.194C13.503,-0.537 12.966,0 12.31,0L0,0C-0.657,0 -1.193,-0.537 -1.193,-1.194C-1.193,-1.85 -0.657,-2.387 0,-2.387" style="fill:rgb(185,224,237);"/>
        </g>
        <g transform="matrix(0.571809,0,0,0.571809,75.7001,102.357)">
            <path d="M0,-2.387L12.31,-2.387C12.966,-2.387 13.503,-1.851 13.503,-1.194C13.503,-0.537 12.966,0 12.31,0L0,0C-0.657,0 -1.193,-0.537 -1.193,-1.194C-1.193,-1.851 -0.657,-2.387 0,-2.387" style="fill:rgb(185,224,237);"/>
        </g>
        <g transform="matrix(0.571809,0,0,0.571809,75.7001,104.782)">
            <path d="M0,-2.386L12.31,-2.386C12.966,-2.386 13.503,-1.85 13.503,-1.193C13.503,-0.536 12.966,0 12.31,0L0,0C-0.657,0 -1.193,-0.536 -1.193,-1.193C-1.193,-1.85 -0.657,-2.386 0,-2.386" style="fill:rgb(185,224,237);"/>
        </g>
        <g transform="matrix(0.571809,0,0,0.571809,75.7001,110.012)">
            <path d="M0,-2.386L28.294,-2.386C28.95,-2.386 29.487,-1.849 29.487,-1.193C29.487,-0.536 28.95,0 28.294,0L0,0C-0.657,0 -1.193,-0.536 -1.193,-1.193C-1.193,-1.849 -0.657,-2.386 0,-2.386" style="fill:rgb(185,224,237);"/>
        </g>
        <g transform="matrix(0.571809,0,0,0.571809,1.06949,-35.1346)">
            <rect x="147.161" y="234.349" width="12.841" height="4.241" style="fill:rgb(185,224,237);"/>
        </g>
        <g transform="matrix(0.571809,0,0,0.571809,1.06949,-28.7675)">
            <rect x="147.161" y="228.782" width="12.841" height="4.24" style="fill:rgb(185,224,237);"/>
        </g>
        <g transform="matrix(0.571809,0,0,0.571809,1.06949,-56.6626)">
            <rect x="107.228" y="249.597" width="58.327" height="11.394" style="fill:rgb(144,193,209);"/>
        </g>
        <g transform="matrix(0.571809,0,0,0.571809,155.261,141.68)">
            <path d="M0,-14.131L-23.502,-14.131C-24.521,-14.131 -25.449,-13.713 -26.121,-13.042C-26.793,-12.371 -27.212,-11.443 -27.212,-10.423L-27.212,-3.708C-27.212,-2.69 -26.793,-1.762 -26.121,-1.089C-25.449,-0.417 -24.521,0.001 -23.502,0.001L0,0.001C1.019,0.001 1.946,-0.417 2.619,-1.089C3.291,-1.762 3.709,-2.69 3.709,-3.708L3.709,-10.423C3.709,-11.443 3.291,-12.371 2.621,-13.044C1.946,-13.713 1.019,-14.131 0,-14.131M-23.502,-16.308L0,-16.308C1.618,-16.308 3.092,-15.645 4.157,-14.579C5.222,-13.51 5.885,-12.039 5.885,-10.423L5.885,-3.708C5.885,-2.09 5.222,-0.615 4.157,0.449C3.092,1.514 1.618,2.177 0,2.177L-23.502,2.177C-25.121,2.177 -26.595,1.514 -27.66,0.449C-28.725,-0.615 -29.386,-2.09 -29.386,-3.708L-29.386,-10.423C-29.386,-12.039 -28.725,-13.51 -27.66,-14.575C-26.595,-15.645 -25.121,-16.308 -23.502,-16.308" style="fill:rgb(172,189,207);"/>
        </g>
        <g transform="matrix(0.571809,0,0,0.571809,112.683,193.866)">
            <path d="M0,-4.556L4.56,-4.556C5.415,-4.556 6.116,-3.856 6.116,-2.998L6.116,-1.557C6.116,-0.7 5.415,0 4.56,0L0,0C-0.857,0 -1.558,-0.7 -1.558,-1.557L-1.558,-2.998C-1.558,-3.856 -0.857,-4.556 0,-4.556" style="fill:rgb(250,180,180);"/>
        </g>
        <g transform="matrix(0.571809,0,0,0.571809,118.993,193.866)">
            <path d="M0,-4.556L4.559,-4.556C5.414,-4.556 6.115,-3.856 6.115,-2.998L6.115,-1.557C6.115,-0.7 5.414,0 4.559,0L0,0C-0.856,0 -1.557,-0.7 -1.557,-1.557L-1.557,-2.998C-1.557,-3.856 -0.856,-4.556 0,-4.556" style="fill:rgb(167,232,232);"/>
        </g>
        <g transform="matrix(0.571809,0,0,0.571809,1.06949,20.3097)">
            <rect x="510.528" y="182.711" width="7" height="10.554" style="fill:rgb(75,134,153);"/>
        </g>
        <g transform="matrix(0.571809,0,0,0.571809,309.751,146.401)">
            <path d="M0,-27.813C-1.235,-12.307 -14.313,0 -30.122,0L-82.399,0L-82.399,-3.591C-82.399,-16.914 -71.5,-27.813 -58.178,-27.813L0,-27.813Z" style="fill:rgb(86,143,162);"/>
        </g>
        <g transform="matrix(0.571809,0,0,0.571809,269.435,139.351)">
            <path d="M0,7.197C1.982,7.197 3.599,5.581 3.599,3.598C3.599,1.617 1.982,0 0,0C-1.981,0 -3.598,1.617 -3.598,3.598C-3.598,5.581 -1.981,7.197 0,7.197" style="fill:rgb(77,130,148);"/>
        </g>
        <g transform="matrix(0.571809,0,0,0.571809,269.435,140.279)">
            <path d="M0,3.953C1.09,3.953 1.979,3.066 1.979,1.976C1.979,0.888 1.09,0 0,0C-1.089,0 -1.977,0.888 -1.977,1.976C-1.977,3.066 -1.089,3.953 0,3.953" style="fill:white;"/>
        </g>
        <g transform="matrix(0.571809,0,0,0.571809,288.462,139.351)">
            <path d="M0,7.197C1.982,7.197 3.599,5.581 3.599,3.598C3.599,1.617 1.982,0 0,0C-1.982,0 -3.597,1.617 -3.597,3.598C-3.597,5.581 -1.982,7.197 0,7.197" style="fill:rgb(77,130,148);"/>
        </g>
        <g transform="matrix(0.571809,0,0,0.571809,288.462,140.279)">
            <path d="M0,3.953C1.09,3.953 1.979,3.066 1.979,1.976C1.979,0.888 1.09,0 0,0C-1.089,0 -1.977,0.888 -1.977,1.976C-1.977,3.066 -1.089,3.953 0,3.953" style="fill:white;"/>
        </g>
        <g transform="matrix(0.571809,0,0,0.571809,1.06949,8.6951)">
            <rect x="602.076" y="74.818" width="6.324" height="246.652" style="fill:rgb(215,238,247);"/>
        </g>
        <g transform="matrix(0.571809,0,0,0.571809,330.575,206.077)">
            <path d="M0,-24.598L57.975,-24.598C63.358,-24.598 68.252,-22.393 71.8,-18.846C75.36,-15.298 77.563,-10.397 77.563,-5.008L77.563,0L71.588,0L71.588,-5.008C71.588,-8.747 70.056,-12.151 67.587,-14.62C65.124,-17.09 61.718,-18.622 57.975,-18.622L0,-18.622C-3.744,-18.622 -7.15,-17.09 -9.618,-14.625C-12.082,-12.159 -13.614,-8.752 -13.614,-5.008L-13.614,0L-19.59,0L-19.59,-5.008C-19.59,-10.391 -17.385,-15.286 -13.839,-18.833L-13.827,-18.846C-10.278,-22.393 -5.383,-24.598 0,-24.598" style="fill:rgb(52,134,162);"/>
        </g>
        <g transform="matrix(0.571809,0,0,0.571809,345.417,192.012)">
            <path d="M0,-32.85L6.06,-32.85L8.96,-29.951L8.96,0L-2.898,0L-2.898,-29.951L0,-32.85Z" style="fill:rgb(52,134,162);"/>
        </g>
        <g transform="matrix(0.571809,0,0,0.571809,324.042,200.71)">
            <path d="M0,19.227C5.296,19.227 9.614,14.908 9.614,9.613C9.614,4.319 5.296,0 0,0C-5.295,0 -9.614,4.319 -9.614,9.613C-9.614,14.908 -5.295,19.227 0,19.227" style="fill:rgb(158,198,218);"/>
        </g>
        <g transform="matrix(0.571809,0,0,0.571809,324.042,203.19)">
            <path d="M0,10.551C2.906,10.551 5.275,8.182 5.275,5.276C5.275,2.37 2.906,0 0,0C-2.905,0 -5.275,2.37 -5.275,5.276C-5.275,8.182 -2.905,10.551 0,10.551" style="fill:rgb(215,238,247);"/>
        </g>
        <g transform="matrix(0.571809,0,0,0.571809,370.976,200.71)">
            <path d="M0,19.227C5.295,19.227 9.613,14.908 9.613,9.613C9.613,4.319 5.295,0 0,0C-5.297,0 -9.615,4.319 -9.615,9.613C-9.615,14.908 -5.297,19.227 0,19.227" style="fill:rgb(158,198,218);"/>
        </g>
        <g transform="matrix(0.571809,0,0,0.571809,370.976,203.19)">
            <path d="M0,10.551C2.905,10.551 5.274,8.182 5.274,5.276C5.274,2.37 2.905,0 0,0C-2.906,0 -5.275,2.37 -5.275,5.276C-5.275,8.182 -2.906,10.551 0,10.551" style="fill:white;"/>
        </g>
        <g transform="matrix(0.571809,0,0,0.571809,1.06949,-114.758)">
            <rect x="570.982" y="278.689" width="68.515" height="54.81" style="fill:rgb(215,238,247);"/>
        </g>
        <g transform="matrix(0.571809,0,0,0.571809,1.06949,-77.4422)">
            <rect x="602.076" y="268.239" width="6.324" height="10.45" style="fill:rgb(186,214,229);"/>
        </g>
        <g transform="matrix(0.571809,0,0,0.571809,1.06949,-123.195)">
            <rect x="577.01" y="299.768" width="56.457" height="27.406" style="fill:rgb(156,163,168);"/>
        </g>
        <g transform="matrix(0.571809,0,0,0.571809,332.588,67.2022)">
            <path d="M0,-3.032L2.371,-3.032C2.771,-3.032 3.096,-2.706 3.096,-2.308L3.096,-0.725C3.096,-0.326 2.771,0 2.371,0L0,0C-0.398,0 -0.725,-0.326 -0.725,-0.725L-0.725,-2.308C-0.725,-2.706 -0.398,-3.032 0,-3.032" style="fill:rgb(156,163,168);"/>
        </g>
        <g transform="matrix(0.571809,0,0,0.571809,335.601,67.2022)">
            <path d="M0,-3.032L2.37,-3.032C2.77,-3.032 3.097,-2.706 3.097,-2.308L3.097,-0.725C3.097,-0.326 2.77,0 2.37,0L0,0C-0.398,0 -0.726,-0.326 -0.726,-0.725L-0.726,-2.308C-0.726,-2.706 -0.398,-3.032 0,-3.032" style="fill:rgb(156,163,168);"/>
        </g>
        <g transform="matrix(0.571809,0,0,0.571809,338.613,67.2022)">
            <path d="M0,-3.032L2.372,-3.032C2.771,-3.032 3.097,-2.706 3.097,-2.308L3.097,-0.725C3.097,-0.326 2.771,0 2.372,0L0,0C-0.398,0 -0.724,-0.326 -0.724,-0.725L-0.724,-2.308C-0.724,-2.706 -0.398,-3.032 0,-3.032" style="fill:rgb(156,163,168);"/>
        </g>
        <g transform="matrix(0.571809,0,0,0.571809,341.626,67.2022)">
            <path d="M0,-3.032L2.371,-3.032C2.77,-3.032 3.097,-2.706 3.097,-2.308L3.097,-0.725C3.097,-0.326 2.77,0 2.371,0L0,0C-0.397,0 -0.725,-0.326 -0.725,-0.725L-0.725,-2.308C-0.725,-2.706 -0.397,-3.032 0,-3.032" style="fill:rgb(156,163,168);"/>
        </g>
        <g transform="matrix(0.571809,0,0,0.571809,344.638,67.2022)">
            <path d="M0,-3.032L2.372,-3.032C2.771,-3.032 3.097,-2.706 3.097,-2.308L3.097,-0.725C3.097,-0.326 2.771,0 2.372,0L0,0C-0.397,0 -0.724,-0.326 -0.724,-0.725L-0.724,-2.308C-0.724,-2.706 -0.397,-3.032 0,-3.032" style="fill:rgb(156,163,168);"/>
        </g>
        <g transform="matrix(0.571809,0,0,0.571809,347.65,67.2022)">
            <path d="M0,-3.032L2.371,-3.032C2.771,-3.032 3.098,-2.706 3.098,-2.308L3.098,-0.725C3.098,-0.326 2.771,0 2.371,0L0,0C-0.397,0 -0.725,-0.326 -0.725,-0.725L-0.725,-2.308C-0.725,-2.706 -0.397,-3.032 0,-3.032" style="fill:rgb(156,163,168);"/>
        </g>
        <g transform="matrix(0.571809,0,0,0.571809,350.663,67.2022)">
            <path d="M0,-3.032L2.37,-3.032C2.771,-3.032 3.097,-2.706 3.097,-2.308L3.097,-0.725C3.097,-0.326 2.771,0 2.37,0L0,0C-0.397,0 -0.724,-0.326 -0.724,-0.725L-0.724,-2.308C-0.724,-2.706 -0.397,-3.032 0,-3.032" style="fill:rgb(156,163,168);"/>
        </g>
        <g transform="matrix(0.571809,0,0,0.571809,353.676,67.2022)">
            <path d="M0,-3.032L2.371,-3.032C2.77,-3.032 3.096,-2.706 3.096,-2.308L3.096,-0.725C3.096,-0.326 2.77,0 2.371,0L0,0C-0.398,0 -0.725,-0.326 -0.725,-0.725L-0.725,-2.308C-0.725,-2.706 -0.398,-3.032 0,-3.032" style="fill:rgb(156,163,168);"/>
        </g>
        <g transform="matrix(0.571809,0,0,0.571809,356.688,67.2022)">
            <path d="M0,-3.032L2.371,-3.032C2.771,-3.032 3.097,-2.706 3.097,-2.308L3.097,-0.725C3.097,-0.326 2.771,0 2.371,0L0,0C-0.397,0 -0.724,-0.326 -0.724,-0.725L-0.724,-2.308C-0.724,-2.706 -0.397,-3.032 0,-3.032" style="fill:rgb(156,163,168);"/>
        </g>
        <g transform="matrix(0.571809,0,0,0.571809,331.014,69.4632)">
            <path d="M0,-3.033L2.371,-3.033C2.77,-3.033 3.097,-2.706 3.097,-2.308L3.097,-0.726C3.097,-0.327 2.77,0 2.371,0L0,0C-0.397,0 -0.724,-0.327 -0.724,-0.726L-0.724,-2.308C-0.724,-2.706 -0.397,-3.033 0,-3.033" style="fill:rgb(156,163,168);"/>
        </g>
        <g transform="matrix(0.571809,0,0,0.571809,334.027,69.4632)">
            <path d="M0,-3.033L2.371,-3.033C2.77,-3.033 3.096,-2.706 3.096,-2.308L3.096,-0.726C3.096,-0.327 2.77,0 2.371,0L0,0C-0.399,0 -0.725,-0.327 -0.725,-0.726L-0.725,-2.308C-0.725,-2.706 -0.399,-3.033 0,-3.033" style="fill:rgb(156,163,168);"/>
        </g>
        <g transform="matrix(0.571809,0,0,0.571809,337.04,69.4632)">
            <path d="M0,-3.033L2.371,-3.033C2.77,-3.033 3.097,-2.706 3.097,-2.308L3.097,-0.726C3.097,-0.327 2.77,0 2.371,0L0,0C-0.397,0 -0.725,-0.327 -0.725,-0.726L-0.725,-2.308C-0.725,-2.706 -0.397,-3.033 0,-3.033" style="fill:rgb(156,163,168);"/>
        </g>
        <g transform="matrix(0.571809,0,0,0.571809,340.052,69.4632)">
            <path d="M0,-3.033L2.372,-3.033C2.771,-3.033 3.097,-2.706 3.097,-2.308L3.097,-0.726C3.097,-0.327 2.771,0 2.372,0L0,0C-0.397,0 -0.724,-0.327 -0.724,-0.726L-0.724,-2.308C-0.724,-2.706 -0.397,-3.033 0,-3.033" style="fill:rgb(156,163,168);"/>
        </g>
        <g transform="matrix(0.571809,0,0,0.571809,343.064,69.4632)">
            <path d="M0,-3.033L2.371,-3.033C2.77,-3.033 3.098,-2.706 3.098,-2.308L3.098,-0.726C3.098,-0.327 2.77,0 2.371,0L0,0C-0.397,0 -0.725,-0.327 -0.725,-0.726L-0.725,-2.308C-0.725,-2.706 -0.397,-3.033 0,-3.033" style="fill:rgb(156,163,168);"/>
        </g>
        <g transform="matrix(0.571809,0,0,0.571809,346.076,69.4632)">
            <path d="M0,-3.033L2.373,-3.033C2.771,-3.033 3.098,-2.706 3.098,-2.308L3.098,-0.726C3.098,-0.327 2.771,0 2.373,0L0,0C-0.397,0 -0.723,-0.327 -0.723,-0.726L-0.723,-2.308C-0.723,-2.706 -0.397,-3.033 0,-3.033" style="fill:rgb(156,163,168);"/>
        </g>
        <g transform="matrix(0.571809,0,0,0.571809,349.089,69.4632)">
            <path d="M0,-3.033L2.371,-3.033C2.77,-3.033 3.097,-2.706 3.097,-2.308L3.097,-0.726C3.097,-0.327 2.77,0 2.371,0L0,0C-0.398,0 -0.725,-0.327 -0.725,-0.726L-0.725,-2.308C-0.725,-2.706 -0.398,-3.033 0,-3.033" style="fill:rgb(156,163,168);"/>
        </g>
        <g transform="matrix(0.571809,0,0,0.571809,352.101,69.4632)">
            <path d="M0,-3.033L2.371,-3.033C2.771,-3.033 3.097,-2.706 3.097,-2.308L3.097,-0.726C3.097,-0.327 2.771,0 2.371,0L0,0C-0.397,0 -0.724,-0.327 -0.724,-0.726L-0.724,-2.308C-0.724,-2.706 -0.397,-3.033 0,-3.033" style="fill:rgb(156,163,168);"/>
        </g>
        <g transform="matrix(0.571809,0,0,0.571809,355.114,69.4632)">
            <path d="M0,-3.033L2.371,-3.033C2.771,-3.033 3.096,-2.706 3.096,-2.308L3.096,-0.726C3.096,-0.327 2.771,0 2.371,0L0,0C-0.398,0 -0.725,-0.327 -0.725,-0.726L-0.725,-2.308C-0.725,-2.706 -0.398,-3.033 0,-3.033" style="fill:rgb(156,163,168);"/>
        </g>
        <g transform="matrix(0.571809,0,0,0.571809,335.298,72.365)">
            <path d="M0,-3.031L21.224,-3.031C21.621,-3.031 21.947,-2.705 21.947,-2.308L21.947,-0.725C21.947,-0.325 21.621,0 21.224,0L0,0C-0.396,0 -0.723,-0.325 -0.723,-0.725L-0.723,-2.308C-0.723,-2.705 -0.396,-3.031 0,-3.031" style="fill:rgb(156,163,168);"/>
        </g>
        <g transform="matrix(0.571809,0,0,0.571809,360.012,70.5571)">
            <path d="M0,-3.032L2.371,-3.032C2.771,-3.032 3.097,-2.706 3.097,-2.308L3.097,-0.725C3.097,-0.326 2.771,0 2.371,0L0,0C-0.398,0 -0.725,-0.326 -0.725,-0.725L-0.725,-2.308C-0.725,-2.706 -0.398,-3.032 0,-3.032" style="fill:rgb(156,163,168);"/>
        </g>
        <g transform="matrix(0.571809,0,0,0.571809,363.024,70.5571)">
            <path d="M0,-3.032L2.371,-3.032C2.77,-3.032 3.097,-2.706 3.097,-2.308L3.097,-0.725C3.097,-0.326 2.77,0 2.371,0L0,0C-0.397,0 -0.725,-0.326 -0.725,-0.725L-0.725,-2.308C-0.725,-2.706 -0.397,-3.032 0,-3.032" style="fill:rgb(156,163,168);"/>
        </g>
        <g transform="matrix(0.571809,0,0,0.571809,360.012,73.1186)">
            <path d="M0,-3.033L2.371,-3.033C2.771,-3.033 3.097,-2.705 3.097,-2.308L3.097,-0.726C3.097,-0.327 2.771,0 2.371,0L0,0C-0.398,0 -0.725,-0.327 -0.725,-0.726L-0.725,-2.308C-0.725,-2.705 -0.398,-3.033 0,-3.033" style="fill:rgb(156,163,168);"/>
        </g>
        <g transform="matrix(0.571809,0,0,0.571809,363.024,73.1186)">
            <path d="M0,-3.033L2.371,-3.033C2.77,-3.033 3.097,-2.705 3.097,-2.308L3.097,-0.726C3.097,-0.327 2.77,0 2.371,0L0,0C-0.397,0 -0.725,-0.327 -0.725,-0.726L-0.725,-2.308C-0.725,-2.705 -0.397,-3.033 0,-3.033" style="fill:rgb(156,163,168);"/>
        </g>
        <g transform="matrix(0.571809,0,0,0.571809,353.569,70.1416)">
            <path d="M0,7.641C2.105,7.641 3.822,5.925 3.822,3.821C3.822,1.717 2.105,0 0,0C-2.104,0 -3.819,1.717 -3.819,3.821C-3.819,5.925 -2.104,7.641 0,7.641" style="fill:rgb(156,163,168);"/>
        </g>
        <g transform="matrix(0.571809,0,0,0.571809,326.582,68.1843)">
            <path d="M0,-26.352L-3.665,-26.352L-6.827,-23.191L-6.827,-3.161L-3.665,0L0,0L0,-26.352Z" style="fill:rgb(178,242,255);"/>
        </g>
        <g transform="matrix(0.571809,0,0,0.571809,360.109,93.4932)">
            <path d="M0,-14.474L-45.327,-14.474C-46.155,-14.474 -46.911,-14.134 -47.459,-13.586C-48.007,-13.038 -48.347,-12.284 -48.347,-11.454L-48.347,-3.02C-48.347,-2.19 -48.007,-1.435 -47.459,-0.888C-46.911,-0.34 -46.155,0 -45.327,0L0,0C0.829,0 1.585,-0.34 2.133,-0.888C2.679,-1.435 3.021,-2.19 3.021,-3.02L3.021,-11.454C3.021,-12.284 2.679,-13.038 2.133,-13.586C1.585,-14.134 0.829,-14.474 0,-14.474M-45.327,-16.864L0,-16.864C1.488,-16.864 2.844,-16.254 3.822,-15.276C4.801,-14.297 5.41,-12.943 5.41,-11.454L5.41,-3.02C5.41,-1.531 4.801,-0.177 3.822,0.802C2.844,1.781 1.488,2.39 0,2.39L-45.327,2.39C-46.816,2.39 -48.169,1.781 -49.148,0.802C-50.127,-0.177 -50.736,-1.531 -50.736,-3.02L-50.736,-11.454C-50.736,-12.943 -50.127,-14.297 -49.148,-15.276C-48.169,-16.254 -46.816,-16.864 -45.327,-16.864" style="fill:rgb(215,238,247);"/>
        </g>
        <g transform="matrix(0.571809,0,0,0.571809,1.06949,-63.5638)">
            <rect x="602.076" y="260.191" width="6.324" height="2.275" style="fill:rgb(186,214,229);"/>
        </g>
        <g transform="matrix(0.571809,0,0,0.571809,1.06949,-44.2767)">
            <rect x="602.076" y="243.326" width="6.324" height="2.275" style="fill:rgb(186,214,229);"/>
        </g>
        <g transform="matrix(0.571809,0,0,0.571809,320.358,63.1438)">
            <path d="M0,-10.145L2.933,-10.145L2.933,0L-2.932,0L-2.932,-7.214C-2.932,-8.826 -1.612,-10.145 0,-10.145" style="fill:rgb(186,214,229);"/>
        </g>
        <g transform="matrix(0.571809,0,0,0.571809,319.366,106.9)">
            <path d="M0,-80.128L1.195,-80.128L1.195,-18.057C1.195,-13.751 2.96,-9.833 5.799,-6.992C8.638,-4.154 12.555,-2.39 16.862,-2.39L16.862,0C11.896,0 7.381,-2.031 4.108,-5.302C0.836,-8.575 -1.196,-13.09 -1.196,-18.057L-1.196,-80.128L0,-80.128Z" style="fill:rgb(186,214,229);"/>
        </g>
        <g transform="matrix(0.571809,0,0,0.571809,338.651,105.533)">
            <path d="M0,151.237L-1.196,151.237L-1.196,148.847L-1.196,61.28L-1.196,18.057C-1.196,13.75 -2.96,9.832 -5.799,6.993C-8.638,4.154 -12.557,2.39 -16.863,2.39L-16.863,0C-11.896,0 -7.381,2.032 -4.109,5.303C-0.837,8.575 1.194,13.091 1.194,18.057L1.194,151.237L0,151.237Z" style="fill:rgb(186,214,229);"/>
        </g>
        <g transform="matrix(0.571809,0,0,0.571809,330.575,192.012)">
            <path d="M0,-27.345L21.485,-27.345L21.485,0L0,0C-3.619,0 -6.579,-2.959 -6.579,-6.577L-6.579,-20.766C-6.579,-24.386 -3.619,-27.345 0,-27.345" style="fill:rgb(52,134,162);"/>
        </g>
        <g transform="matrix(0.571809,0,0,0.571809,340.3,182.62)">
            <path d="M0,-5.386L9.345,-5.386C10.794,-5.386 11.979,-4.2 11.979,-2.751L11.979,-2.637C11.979,-1.187 10.794,0 9.345,0L0,0C-1.45,0 -2.637,-1.187 -2.637,-2.637L-2.637,-2.751C-2.637,-4.2 -1.45,-5.386 0,-5.386" style="fill:rgb(215,238,247);"/>
        </g>
        <g transform="matrix(0.571809,0,0,0.571809,340.3,190.23)">
            <path d="M0,-5.386L9.345,-5.386C10.794,-5.386 11.979,-4.2 11.979,-2.751L11.979,-2.636C11.979,-1.186 10.794,0 9.345,0L0,0C-1.45,0 -2.637,-1.186 -2.637,-2.636L-2.637,-2.751C-2.637,-4.2 -1.45,-5.386 0,-5.386" style="fill:rgb(215,238,247);"/>
        </g>
        <g transform="matrix(0.571809,0,0,0.571809,1.06949,123.558)">
            <rect x="573.757" y="96.717" width="10.278" height="1.977" style="fill:rgb(35,105,128);"/>
        </g>
        <g transform="matrix(0.571809,0,0,0.571809,1.06949,127.326)">
            <rect x="573.757" y="93.422" width="10.278" height="1.978" style="fill:rgb(35,105,128);"/>
        </g>
        <g transform="matrix(0.571809,0,0,0.571809,1.06949,131.094)">
            <rect x="573.757" y="90.128" width="10.278" height="1.976" style="fill:rgb(35,105,128);"/>
        </g>
        <g transform="matrix(0.571809,0,0,0.571809,1.06949,-130.229)">
            <rect x="580.475" y="315.547" width="17.927" height="8.149" style="fill:rgb(230,230,230);"/>
        </g>
        <g transform="matrix(0.571809,0,0,0.571809,1.06949,-121.531)">
            <rect x="580.475" y="310.93" width="17.927" height="2.173" style="fill:rgb(230,230,230);"/>
        </g>
        <g transform="matrix(0.571809,0,0,0.571809,1.06949,-123.706)">
            <rect x="609.809" y="304.139" width="17.927" height="19.557" style="fill:rgb(230,230,230);"/>
        </g>
        <g transform="matrix(0.571809,0,0,0.571809,60.4003,20.918)">
            <path d="M0,-17.799L130.434,-17.799L130.434,-8.9L121.536,0L8.898,0L0,-8.9L0,-17.799Z" style="fill:rgb(178,242,255);"/>
        </g>
        <g transform="matrix(0.571809,0,0,0.571809,37.2197,15.5463)">
            <path d="M0,-14.831L380.171,-14.831C384.25,-14.831 387.587,-11.496 387.587,-7.417C387.587,-3.338 384.25,0 380.171,0L0,0L0,-14.831Z" style="fill:rgb(86,143,162);"/>
        </g>
        <g transform="matrix(0.571809,0,0,0.571809,28.7381,80.2825)">
            <path d="M0,-140.401L0.001,-140.401C9.79,-140.401 17.798,-132.393 17.798,-122.605L17.798,-17.797C17.798,-8.008 9.79,0 0.001,0L0,0C-9.789,0 -17.796,-8.008 -17.796,-17.797L-17.796,-122.605C-17.796,-132.393 -9.789,-140.401 0,-140.401" style="fill:rgb(225,241,247);"/>
        </g>
        <g transform="matrix(0.571809,0,0,0.571809,28.7389,5.08847)">
            <path d="M0,19.774C5.446,19.774 9.888,15.333 9.888,9.887C9.888,4.441 5.446,0 0,0C-5.446,0 -9.889,4.441 -9.889,9.887C-9.889,15.333 -5.446,19.774 0,19.774" style="fill:rgb(199,219,229);"/>
        </g>
        <g transform="matrix(0.571809,0,0,0.571809,28.7389,63.8865)">
            <path d="M0,19.776C5.446,19.776 9.888,15.335 9.888,9.889C9.888,4.443 5.446,0 0,0C-5.446,0 -9.889,4.443 -9.889,9.889C-9.889,15.335 -5.446,19.776 0,19.776" style="fill:rgb(225,241,247);"/>
        </g>
        <g transform="matrix(0.571809,0,0,0.571809,27.6201,108.26)">
            <path d="M0,8.406C2.314,8.406 4.203,6.517 4.203,4.203C4.203,1.889 2.314,0 0,0C-2.314,0 -4.203,1.889 -4.203,4.203C-4.203,6.517 -2.314,8.406 0,8.406" style="fill:rgb(172,189,207);"/>
        </g>
        <g transform="matrix(0.571809,0,0,0.571809,13.5706,55.1179)">
            <path d="M0,-43.505L6.181,-43.505L6.181,0L0,0C-3.398,0 -6.18,-2.78 -6.18,-6.18L-6.18,-37.326C-6.18,-40.725 -3.398,-43.505 0,-43.505" style="fill:rgb(178,242,255);"/>
        </g>
        <g transform="matrix(0.571809,0,0,0.571809,1.06949,-114.744)">
            <rect x="15.618" y="303.733" width="8.774" height="4.697" style="fill:rgb(86,143,162);"/>
        </g>
        <g transform="matrix(0.571809,0,0,0.571809,1.06949,-108.243)">
            <rect x="15.618" y="298.048" width="8.774" height="4.697" style="fill:rgb(86,143,162);"/>
        </g>
        <g transform="matrix(0.571809,0,0,0.571809,1.06949,-101.739)">
            <rect x="15.618" y="292.361" width="8.774" height="4.698" style="fill:rgb(86,143,162);"/>
        </g>
        <g transform="matrix(0.571809,0,0,0.571809,1.06949,-95.2397)">
            <rect x="15.618" y="286.678" width="8.774" height="4.697" style="fill:rgb(86,143,162);"/>
        </g>
        <g transform="matrix(0.571809,0,0,0.571809,52.7895,29.1408)">
            <path d="M0,-23.775C-0.264,-10.6 -11.025,0 -24.264,0L-24.264,-23.775L0,-23.775Z" style="fill:rgb(225,241,247);"/>
        </g>
        <g transform="matrix(0.556351,-0.132058,-0.132058,-0.556351,43.502,28.2467)">
            <path d="M-2.675,-0.33C-4.488,-0.319 -6.327,-0.106 -8.166,0.331L-2.675,23.463L2.671,22.194L-2.675,-0.33Z" style="fill:rgb(199,219,229);"/>
        </g>
        <g transform="matrix(0.571809,0,0,0.571809,325.778,89.1396)">
            <path d="M0,20.112C5.538,20.112 10.056,15.595 10.056,10.056C10.056,4.518 5.538,0 0,0C-5.539,0 -10.056,4.518 -10.056,10.056C-10.056,15.595 -5.539,20.112 0,20.112" style="fill:rgb(141,84,53);"/>
        </g>
        <g transform="matrix(0.571809,0,0,0.571809,401.027,224.717)">
            <path d="M0,-13.727L-42.259,-13.727C-46.033,-13.727 -49.122,-10.639 -49.122,-6.864L-49.122,0L0,0L0,-13.727Z" style="fill:rgb(59,224,169);"/>
        </g>
        <g transform="matrix(0.571809,0,0,0.571809,389.968,224.717)">
            <path d="M0,-13.727L-22.917,-13.727C-26.691,-13.727 -29.779,-10.639 -29.779,-6.864L-29.779,0L0,0L0,-13.727Z" style="fill:rgb(0,166,111);"/>
        </g>
        <g transform="matrix(0.571809,0,0,0.571809,1.06949,141.449)">
            <rect x="640.279" y="32.229" width="19.34" height="99.665" style="fill:rgb(97,242,194);"/>
        </g>
        <g transform="matrix(0.571809,0,0,0.571809,1.06949,141.449)">
            <rect x="651.884" y="32.229" width="7.735" height="99.665" style="fill:rgb(59,224,169);"/>
        </g>
        <g transform="matrix(0.571809,0,0,0.571809,1.06949,141.449)">
            <rect x="680.119" y="32.229" width="19.342" height="99.665" style="fill:rgb(97,242,194);"/>
        </g>
        <g transform="matrix(0.571809,0,0,0.571809,1.06949,141.449)">
            <rect x="691.725" y="32.229" width="7.736" height="99.665" style="fill:rgb(59,224,169);"/>
        </g>
        <g transform="matrix(0.571809,0,0,0.571809,368.671,51.2471)">
            <path d="M0,-5.403L-4.636,-5.403C-5.379,-5.403 -6.055,-5.098 -6.543,-4.609C-7.031,-4.12 -7.336,-3.444 -7.336,-2.703C-7.336,-1.96 -7.031,-1.283 -6.543,-0.795C-6.055,-0.306 -5.379,-0.001 -4.636,-0.001L0,-0.001L0,-5.403ZM-4.636,-7.156L1.754,-7.156L1.754,1.753L-4.636,1.753C-5.862,1.753 -6.977,1.252 -7.782,0.446C-8.59,-0.361 -9.092,-1.476 -9.092,-2.703C-9.092,-3.928 -8.59,-5.043 -7.782,-5.849C-6.977,-6.655 -5.862,-7.156 -4.636,-7.156" style="fill:rgb(43,42,40);"/>
        </g>
        <g transform="matrix(0.571809,0,0,0.571809,374.332,175.36)">
            <path d="M0,-186.438L32.105,-186.438C48.755,-186.438 62.378,-172.816 62.378,-156.166L62.378,0L-30.271,0L-30.271,-156.166C-30.271,-172.817 -16.65,-186.438 0,-186.438" style="fill:rgb(97,242,194);"/>
        </g>
        <g transform="matrix(0.571809,0,0,0.571809,389.371,175.36)">
            <path d="M0,-186.438L5.804,-186.438C22.453,-186.438 36.076,-172.816 36.076,-156.166L36.076,0L-30.271,0L-30.271,-156.166C-30.271,-172.817 -16.649,-186.438 0,-186.438" style="fill:rgb(34,215,164);"/>
        </g>
        <g transform="matrix(0.571809,0,0,0.571809,367.623,68.7534)">
            <path d="M0,-52.989L35.585,-52.989L35.585,0L17.792,0C8.006,0 0,-8.005 0,-17.791L0,-52.989Z" style="fill:rgb(141,84,53);"/>
        </g>
        <g transform="matrix(0.571809,0,0,0.571809,1.06949,-127.425)">
            <rect x="667.731" y="291.255" width="17.406" height="51.83" style="fill:rgb(91,50,28);"/>
        </g>
        <g transform="matrix(0.571809,0,0,0.571809,374.036,44.2046)">
            <path d="M0,-22.435L21.662,-22.435C27.832,-22.435 32.879,-17.388 32.879,-11.22L32.879,0L-11.216,0L-11.216,-11.22C-11.216,-17.388 -6.169,-22.435 0,-22.435" style="fill:rgb(34,215,164);"/>
        </g>
        <g transform="matrix(0.571809,0,0,0.571809,374.036,44.2044)">
            <path d="M0,-22.436L4.257,-22.436C10.425,-22.436 15.473,-17.387 15.473,-11.218L15.473,0L-11.216,0L-11.216,-11.218C-11.216,-17.387 -6.169,-22.436 0,-22.436" style="fill:rgb(97,242,194);"/>
        </g>
        <g transform="matrix(0.571809,0,0,0.571809,373.373,53.9354)">
            <path d="M0,-17.018L34.039,-17.018L34.039,0L8.511,0C3.829,0 0,-3.828 0,-8.508L0,-17.018Z"/>
        </g>
        <g transform="matrix(0.571809,0,0,0.571809,1.06949,-136.721)">
            <rect x="634.659" y="324.574" width="15.764" height="1.449" style="fill:rgb(43,42,40);"/>
        </g>
        <g transform="matrix(0.571809,0,0,0.571809,371.33,55.2069)">
            <path d="M0,-9.476L2.898,-9.476L2.898,0L0,0C-1.594,0 -2.896,-1.304 -2.896,-2.897L-2.896,-6.579C-2.896,-8.173 -1.594,-9.476 0,-9.476" style="fill:rgb(91,50,28);"/>
        </g>
        <g transform="matrix(0.571809,0,0,0.571809,330.535,105.776)">
            <path d="M0,6.467L0,9.409C0,16.743 3.008,23.417 7.848,28.256C12.689,33.099 19.361,36.104 26.696,36.104C34.031,36.104 40.705,33.098 45.544,28.256C50.386,23.416 53.392,16.743 53.392,9.409L53.392,-27.58L53.392,-30.657L53.392,-35.731C53.392,-39.082 56.133,-41.822 59.484,-41.822C62.837,-41.822 65.577,-39.082 65.577,-35.731L65.577,-27.58L65.575,-27.58L65.575,9.409C65.575,20.107 61.203,29.829 54.16,36.874C47.118,43.916 37.396,48.289 26.696,48.289C15.997,48.289 6.276,43.916 -0.767,36.874C-7.809,29.831 -12.184,20.107 -12.184,9.409L-12.184,-5.72L0,-5.72L0,6.467Z" style="fill:rgb(34,215,164);"/>
        </g>
        <g transform="matrix(0.571809,0,0,0.571809,381.453,134.036)">
            <path d="M0,-14.312L49.924,-14.312L49.924,0L0,0C-3.936,0 -7.155,-3.219 -7.155,-7.155L-7.155,-7.158C-7.155,-11.093 -3.936,-14.312 0,-14.312" style="fill:rgb(97,242,194);"/>
        </g>
        <g transform="matrix(0.571809,0,0,0.571809,383.554,128.615)">
            <path d="M0,4.643C1.279,4.643 2.322,3.599 2.322,2.322C2.322,1.043 1.279,0 0,0C-1.278,0 -2.32,1.043 -2.32,2.322C-2.32,3.599 -1.278,4.643 0,4.643" style="fill:rgb(59,224,169);"/>
        </g>
        <g transform="matrix(0.571809,0,0,0.571809,405.672,128.615)">
            <path d="M0,4.643C1.277,4.643 2.321,3.599 2.321,2.322C2.321,1.043 1.277,0 0,0C-1.277,0 -2.321,1.043 -2.321,2.322C-2.321,3.599 -1.277,4.643 0,4.643" style="fill:rgb(59,224,169);"/>
        </g>
        <g transform="matrix(0.571809,0,0,0.571809,378.246,224.717)">
            <path d="M0,-13.727L-42.258,-13.727C-46.032,-13.727 -49.12,-10.639 -49.12,-6.864L-49.12,0L0,0L0,-13.727Z" style="fill:rgb(59,224,169);"/>
        </g>
        <g transform="matrix(0.571809,0,0,0.571809,367.187,224.717)">
            <path d="M0,-13.727L-22.918,-13.727C-26.692,-13.727 -29.779,-10.639 -29.779,-6.864L-29.779,0L0,0L0,-13.727Z" style="fill:rgb(0,204,136);"/>
        </g>
        <g transform="matrix(0.571809,0,0,0.571809,1.06949,210.213)">
            <rect x="610.5" y="18.502" width="49.119" height="6.863" style="fill:rgb(0,204,136);"/>
        </g>
        <g transform="matrix(0.571809,0,0,0.571809,1.06949,210.213)">
            <rect x="659.619" y="18.502" width="39.842" height="6.863" style="fill:rgb(0,166,111);"/>
        </g>
        <g transform="matrix(0.571809,0,0,0.571809,388.92,45.409)">
            <path d="M0,-5.073C-0.647,-5.721 -1.546,-6.124 -2.536,-6.124C-3.526,-6.124 -4.425,-5.721 -5.072,-5.073C-5.721,-4.425 -6.123,-3.527 -6.123,-2.536C-6.123,-1.546 -5.721,-0.648 -5.072,0C-4.425,0.649 -3.526,1.052 -2.536,1.052C-1.546,1.052 -0.647,0.649 0,0C0.648,-0.648 1.051,-1.546 1.051,-2.536C1.051,-3.527 0.648,-4.425 0,-5.073M-2.536,-7.878C-1.061,-7.878 0.274,-7.278 1.24,-6.313C2.207,-5.347 2.806,-4.012 2.806,-2.536C2.806,-1.062 2.207,0.275 1.24,1.24C0.274,2.206 -1.061,2.805 -2.536,2.805C-4.011,2.805 -5.348,2.206 -6.313,1.24C-7.279,0.275 -7.878,-1.062 -7.878,-2.536C-7.878,-4.012 -7.279,-5.347 -6.313,-6.313C-5.348,-7.278 -4.011,-7.878 -2.536,-7.878" style="fill:rgb(97,242,194);"/>
        </g>
        <g transform="matrix(0.571809,0,0,0.571809,394.026,45.409)">
            <path d="M0,-5.073C-0.647,-5.721 -1.546,-6.124 -2.536,-6.124C-3.526,-6.124 -4.424,-5.721 -5.072,-5.073C-5.722,-4.425 -6.123,-3.527 -6.123,-2.536C-6.123,-1.546 -5.722,-0.648 -5.072,0C-4.424,0.649 -3.526,1.052 -2.536,1.052C-1.546,1.052 -0.647,0.649 0,0C0.648,-0.648 1.052,-1.546 1.052,-2.536C1.052,-3.527 0.648,-4.425 0,-5.073M-2.536,-7.878C-1.061,-7.878 0.275,-7.278 1.241,-6.313C2.206,-5.347 2.805,-4.012 2.805,-2.536C2.805,-1.062 2.206,0.275 1.241,1.24C0.275,2.206 -1.061,2.805 -2.536,2.805C-4.01,2.805 -5.347,2.206 -6.312,1.24C-7.279,0.275 -7.878,-1.062 -7.878,-2.536C-7.878,-4.012 -7.279,-5.347 -6.312,-6.313C-5.347,-7.278 -4.01,-7.878 -2.536,-7.878" style="fill:rgb(97,242,194);"/>
        </g>
        <g transform="matrix(0.571809,0,0,0.571809,1.06949,-139.661)">
            <rect x="678.301" y="323.94" width="1.537" height="7.858" style="fill:rgb(97,242,194);"/>
        </g>
        <g transform="matrix(0.571809,0,0,0.571809,1.06949,-138.527)">
            <rect x="680.549" y="321.765" width="1.537" height="10.226" style="fill:rgb(97,242,194);"/>
        </g>
        <g transform="matrix(0.571809,0,0,0.571809,1.06949,-41.1438)">
            <rect x="564.981" y="232.228" width="10.058" height="18.992" style="fill:rgb(141,84,53);"/>
        </g>
        <g transform="matrix(0.571809,0,0,0.571809,329.873,83.7069)">
            <path d="M0,21.375C-1.563,21.375 -2.843,20.096 -2.843,18.532L-2.843,2.843C-2.843,1.28 -1.563,0 0,0C1.564,0 2.843,1.28 2.843,2.843L2.843,18.532C2.843,20.096 1.564,21.375 0,21.375" style="fill:rgb(141,84,53);"/>
        </g>
        <g transform="matrix(0.571809,0,0,0.571809,101.169,86.1245)">
            <path d="M0,-48.936L1.559,-48.936C4.398,-48.936 6.72,-46.614 6.72,-43.775L6.72,-5.162C6.72,-2.322 4.398,0 1.559,0L0,0C-2.839,0 -5.161,-2.322 -5.161,-5.162L-5.161,-43.775C-5.161,-46.614 -2.839,-48.936 0,-48.936" style="fill:rgb(75,134,153);"/>
        </g>
        <g transform="matrix(0.571809,0,0,0.571809,100.15,62.9764)">
            <path d="M0,-4.13L5.004,-4.13C5.466,-4.13 5.842,-3.755 5.842,-3.293L5.842,-0.837C5.842,-0.375 5.466,0 5.004,0L0,0C-0.462,0 -0.838,-0.375 -0.838,-0.837L-0.838,-3.293C-0.838,-3.755 -0.462,-4.13 0,-4.13" style="fill:rgb(255,226,65);"/>
        </g>
        <g transform="matrix(0.571809,0,0,0.571809,100.15,67.4384)">
            <path d="M0,-4.131L5.004,-4.131C5.466,-4.131 5.842,-3.755 5.842,-3.293L5.842,-0.838C5.842,-0.376 5.466,0 5.004,0L0,0C-0.462,0 -0.838,-0.376 -0.838,-0.838L-0.838,-3.293C-0.838,-3.755 -0.462,-4.131 0,-4.131" style="fill:rgb(255,226,65);"/>
        </g>
        <g transform="matrix(0.571809,0,0,0.571809,100.15,71.8992)">
            <path d="M0,-4.131L5.004,-4.131C5.466,-4.131 5.842,-3.755 5.842,-3.293L5.842,-0.838C5.842,-0.376 5.466,0 5.004,0L0,0C-0.462,0 -0.838,-0.376 -0.838,-0.838L-0.838,-3.293C-0.838,-3.755 -0.462,-4.131 0,-4.131" style="fill:rgb(255,226,65);"/>
        </g>
        <g transform="matrix(0.571809,0,0,0.571809,100.15,79.3922)">
            <path d="M0,-4.131L5.004,-4.131C5.466,-4.131 5.842,-3.755 5.842,-3.293L5.842,-0.838C5.842,-0.376 5.466,0 5.004,0L0,0C-0.462,0 -0.838,-0.376 -0.838,-0.838L-0.838,-3.293C-0.838,-3.755 -0.462,-4.131 0,-4.131" style="fill:rgb(51,204,51);"/>
        </g>
        <g transform="matrix(0.571809,0,0,0.571809,100.15,83.5475)">
            <path d="M0,-4.13L5.004,-4.13C5.466,-4.13 5.842,-3.755 5.842,-3.293L5.842,-0.837C5.842,-0.375 5.466,0 5.004,0L0,0C-0.462,0 -0.838,-0.375 -0.838,-0.837L-0.838,-3.293C-0.838,-3.755 -0.462,-4.13 0,-4.13" style="fill:rgb(255,226,65);"/>
        </g>
        <g transform="matrix(0.571809,0,0,0.571809,233.691,144.388)">
            <path d="M0,-0.004L0,0C0,1.369 -1.12,2.49 -2.49,2.49L-86.299,2.49C-87.669,2.49 -88.789,1.369 -88.789,0L-88.789,-0.004C-88.789,-1.374 -87.669,-2.494 -86.299,-2.494L-2.49,-2.494C-1.12,-2.494 0,-1.374 0,-0.004" style="fill:rgb(225,241,247);"/>
        </g>
        <g transform="matrix(0.571809,0,0,0.571809,243.534,144.388)">
            <path d="M0,-0.004L0,0C0,1.369 -1.12,2.49 -2.49,2.49L-9.288,2.49C-10.658,2.49 -11.778,1.369 -11.778,0L-11.778,-0.004C-11.778,-1.374 -10.658,-2.494 -9.288,-2.494L-2.49,-2.494C-1.12,-2.494 0,-1.374 0,-0.004" style="fill:white;"/>
        </g>
        <g transform="matrix(0.571809,0,0,0.571809,245.417,11.8882)">
            <path d="M0,0C0,0.717 -0.585,1.302 -1.303,1.302L-45.114,1.302C-45.831,1.302 -46.416,0.717 -46.416,0C-46.416,-0.717 -45.831,-1.302 -45.114,-1.302L-1.303,-1.302C-0.585,-1.302 0,-0.717 0,0" style="fill:rgb(175,214,222);"/>
        </g>
        <g transform="matrix(0.571809,0,0,0.571809,250.563,11.8882)">
            <path d="M0,0C0,0.717 -0.585,1.302 -1.303,1.302L-4.856,1.302C-5.573,1.302 -6.158,0.717 -6.158,0C-6.158,-0.717 -5.573,-1.302 -4.856,-1.302L-1.303,-1.302C-0.585,-1.302 0,-0.717 0,0" style="fill:rgb(175,214,222);"/>
        </g>
    </g>
</svg>
